<svg xmlns="http://www.w3.org/2000/svg" xmlns:xlink="http://www.w3.org/1999/xlink" width="39" height="40" viewBox="311 782 39 40"><defs><path id="a" d="M30.19 0H.06v15.79h30.13z"/><path id="c" d="M.03 15.62h29.78V.04H.03v15.58z"/></defs><g fill="none" fill-rule="evenodd"><path d="M349.08 801.52c0-1.26-.11-2.49-.33-3.69h-18.31v7.39h11.08c-.72 2.55-2.23 4.74-4.25 6.25l5.72 4.57c3.77-3.57 6.09-8.75 6.09-14.52" fill="#3284FF"/><g transform="translate(313.021 782)"><mask id="b" fill="#fff"><use xlink:href="#a"/></mask><path d="M17.65 7.92c2.79 0 5.3 1.01 7.25 2.7l5.29-5.4C26.88 1.98 22.42 0 17.41 0 9.95 0 3.3 4.4.06 10.81l6.5 4.98c1.66-4.59 6.08-7.87 11.09-7.87" fill="#FF3424" mask="url(#b)"/></g><path d="M313.2 810.47l6.27-5.01a11.76 11.76 0 0 1 .11-7.67l-6.5-4.98a19.32 19.32 0 0 0-2.08 8.71c0 3.23.8 6.27 2.2 8.95" fill="#FB0"/><g transform="translate(313.177 805.429)"><mask id="d" fill="#fff"><use xlink:href="#c"/></mask><path d="M6.29.04l-6.26 5c3.28 6.28 9.86 10.58 17.23 10.58 4.89 0 9.27-1.89 12.55-5.01l-5.72-4.57c-1.84 1.38-4.1 2.19-6.59 2.19-5.13 0-9.64-3.44-11.21-8.19" fill="#26B14C" mask="url(#d)"/></g></g></svg>