<?xml version="1.0" encoding="utf-8"?>
<svg xmlns="http://www.w3.org/2000/svg" xmlns:xlink="http://www.w3.org/1999/xlink" width="420px" height="101px" viewBox="0 0 420 101" version="1.1">
    
    <title>Page 1</title>
    <desc>Created with Sketch.</desc>
    <defs>
        <polygon id="path-1" points="1.60339758e-21 0.169861634 1.60339758e-21 52.6123944 30.4102814 52.6123944 30.4102814 0.169861634 0 0.169861634"/>
    </defs>
    <g id="Page-1" stroke="none" stroke-width="1" fill="none" fill-rule="evenodd">
        <g>
            <path d="M134.329606,40.6950186 C133.911735,41.4115031 133.493865,42.1282242 133.075994,42.8447087 C133.700197,42.248427 134.51133,41.761227 134.329606,40.6950186 M45.7981014,21.2881792 C45.6741127,21.1114242 45.5740225,20.8594242 45.4869465,20.86392 C45.1831268,20.8790637 44.7898648,20.8849792 44.5977296,21.0688327 C43.135893,22.4682017 41.7000845,23.8957285 40.2981127,25.3549623 C40.1329521,25.5269848 40.2233408,25.944382 40.1951831,26.2482017 C40.5174592,26.1471651 40.9218423,26.1353341 41.1475775,25.9287651 C41.9402535,25.2028158 42.6581577,24.3964158 43.4300113,23.6465679 C44.059893,23.0344327 44.7321296,22.4663087 45.3717127,21.8634017 C45.534507,21.7098355 45.644062,21.4997172 45.7981014,21.2881792 M28.1966704,9.37224676 C28.5710028,9.20921577 28.7240958,9.17679887 28.8334141,9.0894862 C29.5657521,8.50574535 30.3335831,7.95584113 30.9982479,7.30206085 C31.3995549,6.90714254 31.7019549,6.37356507 31.9286366,5.85039887 C32.1662028,5.30167775 31.7679718,4.87102986 31.3141352,5.17792563 C30.0943606,6.00349183 28.9642648,6.96251155 27.8097972,7.88248901 C27.7092338,7.9627031 27.6100901,8.1787369 27.6491324,8.27575099 C27.7998592,8.65126648 28.007138,9.00406648 28.1966704,9.37224676 M29.9628,11.8025679 C30.5394423,11.7663651 31.0846141,11.7320552 31.6106197,11.6989285 C31.6432732,11.5351876 31.6165352,11.2753792 31.7338986,11.1483144 C32.3917014,10.4358524 33.0492676,9.71605521 33.7759268,9.07718197 C34.3203887,8.59850028 34.4782141,8.08101296 34.0028451,7.57819606 C33.5229803,7.07112 33.0712732,7.50011155 32.6967042,7.86687211 C31.9835324,8.56537352 31.3441859,9.36017915 30.5517465,9.95078197 C29.8650761,10.4623538 29.6284563,10.970613 29.9628,11.8025679 M35.7287493,19.2982073 C35.9594535,19.5899594 36.1274535,19.9773059 36.2883549,19.9744665 C36.8283211,19.9640552 37.5225634,19.9936327 37.8741803,19.6848439 C38.9155437,18.7705454 39.8568169,17.7320214 40.7540789,16.6714918 C40.9710592,16.4152327 40.9942479,15.8352777 40.8584282,15.5068496 C40.7886254,15.3381397 40.1630028,15.3282017 39.8054704,15.3755256 C39.5794986,15.4055763 39.3736394,15.660889 39.1781915,15.8366975 C38.2198817,16.69752 37.2580225,17.5552665 36.3210085,18.4388045 C36.0948,18.6522355 35.9573239,18.9596045 35.7287493,19.2982073 M33.1760958,16.7005961 C33.5149352,17.0612045 33.744693,17.451627 34.0821127,17.6054299 C34.2607606,17.686827 34.6395887,17.3759087 34.903893,17.2048327 C35.0645577,17.10072 35.1674873,16.9116608 35.3163211,16.7836496 C36.2928507,15.9438862 37.2823944,15.1192665 38.2515887,14.2709848 C38.6708789,13.903751 39.0610648,13.4454186 38.5218085,12.9258017 C38.0140225,12.4367087 37.5270592,12.6863425 37.0462479,13.1061059 C35.9992056,14.0206411 34.9043662,14.8795707 33.8506986,15.7865341 C33.6150254,15.9893172 33.469031,16.2957397 33.1760958,16.7005961 M31.1544169,14.2163256 C31.3685577,14.4971932 31.5296958,14.8672665 31.8093803,15.0191763 C31.9934704,15.1192665 32.3926479,14.9706693 32.6174366,14.8180496 C33.0743493,14.5078411 33.4564901,14.0878411 33.9110366,13.7733735 C34.3241746,13.4875369 34.8681634,13.3599989 35.2183606,13.0218693 C35.7055606,12.5509961 36.1350254,11.9852383 36.4502028,11.386827 C36.6021127,11.0986242 36.5711155,10.5189059 36.3718817,10.3007425 C36.2022254,10.1152327 35.5479718,10.1029285 35.3224732,10.2827594 C34.0040282,11.3335876 32.7437915,12.4582411 31.4785859,13.5743763 C31.3413465,13.695289 31.2980451,13.9224439 31.1544169,14.2163256 M43.5596789,18.9863425 C43.5575493,18.2490355 42.9891887,17.8200439 42.4702817,18.1046975 C41.8572,18.4411707 41.2322873,18.8136101 40.7394085,19.2989172 C39.8189577,20.2054073 38.9702028,21.1878524 38.1370648,22.1771594 C37.9162986,22.4393341 37.8614028,22.8415876 37.7305521,23.1797172 C38.2395211,23.2166299 38.6356225,23.9809115 39.2468113,23.3891256 C40.5938873,22.0851144 41.9594197,20.8002693 43.3015268,19.491289 C43.4567493,19.3398524 43.5114085,19.085013 43.5596789,18.9863425 M99.1894479,68.8645961 C99.1894479,69.1464101 99.1130197,69.4272777 99.2050648,69.632427 C99.4113972,70.0924158 99.7166366,70.5069735 99.9527831,70.9551313 C100.169527,71.3663763 100.271037,71.8642242 100.562552,72.2042468 C100.996039,72.7096665 101.589718,73.0747707 102.049707,73.5614975 C103.459961,75.0543313 104.817685,76.5968552 106.235037,78.0823538 C108.543735,80.5022637 110.884141,82.891413 113.207983,85.296889 C113.369831,85.4644158 113.493583,85.6688552 113.654248,85.8378017 C114.218349,86.4307707 114.733707,87.0935425 115.384175,87.5712777 C115.717808,87.8161792 116.298473,87.7246073 116.767217,87.785182 C116.809335,87.3540608 116.994372,86.8699369 116.858789,86.5045961 C116.673989,86.0065115 116.277177,85.5701848 115.914439,85.15752 C114.781504,83.8693623 113.692817,82.5300946 112.455059,81.3493623 C110.720873,79.6949172 108.786034,78.2470411 107.09089,76.5563932 C105.747363,75.2164158 104.582958,73.7197961 103.053685,72.5366975 C101.698563,71.4882355 100.548355,70.1747594 99.1894479,68.8645961 M62.1551493,30.6538242 C61.9455042,30.3121454 61.8094479,29.9834806 61.5820563,29.7402355 C60.9431831,29.0568777 60.2666873,28.4083031 59.6046254,27.7464777 C57.8780113,26.0205735 56.1594423,24.2866242 54.4207606,22.5730242 C53.5824169,21.7467482 52.6932,20.9722918 51.8503606,20.1505115 C50.5316789,18.8651932 49.2326366,17.559289 47.9250761,16.2623763 C47.4284113,15.7697341 46.9364789,15.2718862 46.4320056,14.787289 C45.4703831,13.863289 44.4455831,12.9982073 43.5461915,12.0176552 C41.1669803,9.42382986 38.8537859,6.76966648 36.4835662,4.16779606 C35.9748338,3.60937352 35.3759493,3.10584676 34.7375493,2.70643268 C34.4763211,2.54316507 33.8133127,2.58268056 33.665662,2.77931155 C33.4430028,3.07603268 33.4588563,3.59446648 33.4813352,4.01304676 C33.4912732,4.1947707 33.7562873,4.37696789 33.9285465,4.53384676 C35.2299549,5.71978479 36.5756113,6.86005521 37.832062,8.09166085 C39.190969,9.42382986 40.4415042,10.866027 41.7855042,12.213813 C46.2666085,16.707458 50.7706648,21.1779144 55.2609972,25.661858 C57.0574141,27.4556721 58.8299324,29.2731482 60.6457521,31.046613 C60.8724338,31.2678524 61.3045014,31.3771707 61.6305634,31.3577679 C61.8018761,31.3473566 61.9497634,30.9455763 62.1551493,30.6538242 M33.5149352,19.5873566 C33.0246592,19.1290242 32.7090085,18.8417679 32.4021127,18.54552 C30.8018535,16.9996834 29.8918141,15.0508834 29.2309352,12.977858 C28.5686366,10.9001003 25.7450535,9.41247211 24.0465972,10.9452946 C22.5942254,12.2559313 21.8152732,13.9328552 20.883938,15.5468383 C20.813662,15.6686975 20.9189577,16.0494186 21.0084,16.0742637 C21.2301127,16.1360214 21.5254141,16.1327087 21.7286704,16.0307256 C23.4768169,15.1528665 24.6369634,15.4292383 25.551262,17.1567989 C26.408062,18.775751 27.118631,20.472551 27.8840958,22.1393003 C28.5922986,23.6808777 29.1793521,25.2901285 30.0188789,26.755751 C30.9031268,28.2996946 34.1436338,28.4016777 35.2294817,27.0098806 C35.6191944,26.5103763 35.9253803,25.9351538 36.2060113,25.3632439 C36.6378423,24.4830186 36.121538,22.4291594 35.3175042,21.9833679 C34.6637239,21.6206299 33.954338,21.3011932 33.2300451,21.1412383 C32.7175268,21.0278975 32.131893,21.1736552 31.5921634,21.2749285 C30.9637014,21.3930017 30.3496732,21.5884496 29.7292563,21.7502975 C29.6904507,21.6473679 29.6516451,21.5444383 29.6128394,21.4412721 C30.7216394,20.559627 31.637831,19.3389059 33.5149352,19.5873566 M124.373594,61.2648439 C125.040389,60.9371256 125.97267,60.7814299 126.318608,60.2464327 C127.055206,59.1080552 127.736907,57.8130355 127.948445,56.5028721 C128.072197,55.7359876 128.297223,55.0384327 128.517279,54.3207651 C128.649549,53.8901172 128.977977,53.4710637 128.966856,53.0534299 C128.917639,51.2236496 130.12511,49.7965961 130.471994,48.0853623 C130.721392,46.8558862 131.353639,45.7040214 131.817414,44.51832 C132.013572,44.0171594 132.192693,43.5077172 132.422451,43.0221735 C132.603228,42.6395594 132.889538,42.3052158 133.058248,41.9185792 C133.339115,41.274027 133.606496,40.6169341 133.799104,39.9420946 C133.988637,39.2783763 134.100794,38.5891031 134.204197,37.9047989 C134.286304,37.3608101 134.274473,36.8026242 134.358,36.2591087 C134.462823,35.5774073 134.842361,34.8571369 134.709617,34.2381397 C134.479386,33.1655425 134.027915,32.1161341 133.521313,31.1332158 C132.759634,29.6559989 130.001594,28.5708608 128.420738,29.0263538 C127.613628,29.258951 126.783093,29.4451707 126.016682,29.7764383 C124.892265,30.2626918 124.026473,29.8242355 123.179848,29.1756608 C122.293707,28.4972721 121.417977,27.8096552 120.268479,27.6172834 C119.811803,27.5406186 119.332885,27.4840665 118.916197,27.300213 C117.62733,26.732089 116.358811,26.7266468 115.112772,27.3596045 C114.550563,27.6452045 114.022665,28.0098355 113.513459,28.3851144 C113.081155,28.7038411 112.700434,29.0921341 112.292265,29.4442242 C112.015183,29.6829735 111.582406,29.8602017 111.47711,30.1564496 C111.207363,30.9145792 111.037944,31.7171932 110.910169,32.5150749 C110.769617,33.3931707 110.915848,34.3673341 110.587893,35.1543313 C109.996107,36.5752327 110.460828,37.8323932 110.792569,39.1475256 C110.927915,39.6846524 111.14182,40.2300608 111.136614,40.770027 C111.116738,42.8281454 111.017358,44.8853172 110.956783,46.9429623 C110.909459,48.5510299 110.885087,50.1595707 110.832085,51.7671651 C110.790439,53.0316608 110.883904,54.3330693 110.603037,55.5450355 C110.428648,56.2972496 110.497268,56.9358862 110.662901,57.5988946 C110.824039,58.2441566 111.064682,58.8875256 111.385538,59.4681904 C111.579566,59.8195707 111.949639,60.1998186 112.315927,60.3048777 C113.204907,60.5597172 114.422079,59.9300721 114.882777,59.1407087 C115.488051,58.1036045 116.175431,57.1088552 116.706642,56.036258 C117.150068,55.140889 117.964986,54.7570918 118.7172,54.9421285 C119.563589,55.1505904 120.510777,55.6858242 121.012411,56.372258 C121.658383,57.2565059 121.917482,58.4277735 122.321155,59.4835707 C122.809301,60.7601341 123.232614,61.1176665 124.373594,61.2648439 M32.0280169,48.0690355 C31.2232732,48.26472 31.8037014,48.7609115 31.9572676,49.1891932 C32.1328394,49.6787594 32.5701127,50.2191989 32.4695493,50.6351763 C32.1744845,51.8582637 32.5038592,53.0108383 32.7345634,54.139751 C33.0395662,55.6344777 33.1526704,57.2106017 34.0045014,58.5600439 C34.0953634,58.7041454 34.1221014,58.8932045 34.1597239,59.0657003 C34.5735718,60.9622073 34.9412789,62.8698355 35.4097859,64.7526186 C35.7216507,66.0062299 36.0252338,67.2321566 35.7812789,68.5397172 C35.6868676,69.0453735 35.7349014,69.5772946 35.7145521,70.0971482 C35.6376507,72.0549397 35.5609859,74.0127313 35.4807718,75.9705228 C35.4485915,76.7520777 35.377369,77.5331594 35.3778423,78.3144777 C35.3783155,79.2013285 35.5884338,80.1130242 35.4450423,80.9700608 C35.0640845,83.244213 35.2510141,85.4859482 35.5404,87.7399876 C35.6575268,88.6512101 35.7138423,89.5704777 35.8009183,90.4857228 C35.8688282,91.1967651 35.7732338,91.9818693 36.0479493,92.6020496 C36.5890986,93.8239538 37.3805915,94.9322806 37.9837352,96.1305228 C38.3902479,96.9383425 39.1299211,96.9986806 39.8215606,97.0715594 C40.4956901,97.1425454 41.1352732,96.4634468 41.0815606,95.781982 C40.9722423,94.3897115 40.8132338,92.9998073 40.6184958,91.6167651 C40.4940338,90.7329904 40.2100901,89.8702749 40.1047944,88.9855538 C39.9883775,88.0068946 39.9957127,87.0135651 39.9450761,86.0268608 C39.9363211,85.8527087 39.8774028,85.6766637 39.8937296,85.5062975 C40.0418535,83.9625904 40.1738873,82.4165172 40.3667324,80.8782524 C40.503262,79.7907482 40.6674761,78.6999313 40.9265746,77.6365623 C41.230631,76.3886299 41.6205803,75.1586806 42.0327718,73.9410355 C42.2646592,73.2560214 42.493707,72.5099594 42.9402085,71.9702299 C43.851431,70.8687651 45.030507,71.1422975 46.3726141,71.9950749 C47.4622479,72.6871876 47.7554197,73.7981172 48.4345183,74.6818918 C49.0076113,75.4281904 49.247307,76.4444721 49.5726592,77.3635031 C49.8454817,78.1346468 50.1642085,78.9275594 50.2228901,79.7282806 C50.3338648,81.2438299 50.5697746,82.7068496 50.9097972,84.1973172 C51.3411549,86.0879087 51.3477803,88.082613 51.4611211,90.0368552 C51.548907,91.5521679 51.4906986,93.075289 51.5531662,94.5927313 C51.5853465,95.3790186 52.2840845,96.2038749 52.906631,96.247413 C53.7660338,96.3072777 54.383138,95.8529679 54.6997352,95.0983876 C55.2141465,93.8719876 55.6653803,92.6179031 56.1071493,91.3626355 C56.2500676,90.9565961 56.3560732,90.5084383 56.3451887,90.0827594 C56.3231831,89.2283256 56.1357803,88.4063087 56.5032507,87.5357848 C56.7093465,87.0476383 56.5176845,86.3898355 56.4982817,85.8086975 C56.4542704,84.5030299 56.4985183,83.1852946 56.3286254,81.8959538 C56.2051099,80.9577566 55.6928282,80.0732721 55.5454141,79.1348383 C55.4103042,78.2742524 55.611431,77.3653961 55.5231718,76.4920327 C55.3499662,74.7767763 55.1701352,73.0759538 55.5787775,71.3663763 C55.702293,70.8493623 55.6906986,70.3015876 55.7666535,69.7713228 C55.9329972,68.6130693 55.9469577,67.3977904 56.328862,66.3133623 C57.0108,64.3775763 57.8257183,62.4744439 58.756107,60.6446637 C59.8727155,58.4490693 61.2006254,56.3618468 62.3728394,54.193227 C62.9818986,53.0664439 63.7393183,51.9091369 63.9262479,50.6884158 C64.3143042,48.1527989 64.3594986,45.578613 63.5019887,43.0638186 C63.2159155,42.2240552 63.1520282,41.2896439 63.1039944,40.3921454 C63.0282761,38.9721904 62.5242761,37.7249679 61.7734817,36.5555932 C61.6355324,36.3407425 61.434169,36.0357397 61.2346986,36.0130242 C60.1391493,35.8873792 59.0189915,35.6902749 57.9390592,35.8078749 C57.1239042,35.8966073 56.3776056,36.6227932 55.5631606,36.7089228 C53.9181803,36.8828383 52.3340113,37.1547144 50.8593972,37.9303538 C50.7614366,37.9817003 50.6244338,37.9525961 50.514169,37.9876158 C49.6024732,38.2770017 48.6725577,38.5223763 47.7876,38.8787256 C46.6998592,39.3164721 45.6864169,39.9782975 44.5700451,40.2906355 C43.9089296,40.4756721 43.081707,40.2700496 42.3853352,40.0570918 C41.8881972,39.905182 41.6541803,39.4151425 41.9693577,38.8269059 C42.1903606,38.4142411 42.3292563,37.9580383 42.5154761,37.5257341 C42.9837465,36.4370468 42.7435775,35.6722918 41.7829014,35.054951 C41.3908225,34.8031876 41.0758817,34.428382 40.6783606,34.1879763 C40.1665521,33.8782411 39.6284789,33.5857792 39.0648507,33.3936439 C37.2686704,32.7817454 35.5647718,33.2123932 34.0357352,34.1588721 C32.8535831,34.8905003 32.0386648,36.0085285 31.8858085,37.4689454 C31.7483324,38.7824214 31.6619662,40.1013397 31.5275662,41.415289 C31.4563437,42.1130806 31.187307,42.8208101 31.2606592,43.4965961 C31.4210873,44.9747594 31.7431268,46.4351763 32.0280169,48.0690355 M77.8345183,72.144382 C77.5150817,69.3075482 79.3671042,67.2768777 80.6410648,65.0204721 C80.7941577,64.7495425 81.0272282,64.4663087 81.2950817,64.3293059 C81.8714873,64.034951 82.520062,63.5856101 83.0933915,63.6445285 C84.2357915,63.7616552 85.1931549,64.4170918 85.7229465,65.5005735 C86.3471493,66.7776101 87.3260451,67.8596721 87.126338,69.5299707 C86.9931211,70.6451594 87.5430254,71.8313341 87.7110254,72.9969228 C87.8317014,73.8340834 87.8172676,74.6899369 87.8802085,75.536089 C87.9362873,76.2916158 88.0960056,77.048089 88.0678479,77.7988834 C88.0174479,79.1435932 87.8215268,80.4823876 87.7564563,81.8268608 C87.655893,83.9053285 87.6159042,85.9863989 87.5427887,88.0660496 C87.5378197,88.2037623 87.4476676,88.3374524 87.4372563,88.4761115 C87.3873296,89.1313115 87.3433183,89.7869848 87.313031,90.4433679 C87.2910254,90.9213397 87.327938,91.4040439 87.2756451,91.8777566 C87.2242986,92.3455538 87.0745183,92.8019932 87.0068451,93.2688439 C86.9746648,93.4910299 87.1164,93.8883144 87.0366592,93.929013 C86.5040282,94.2030186 86.6897746,94.6585115 86.7020789,95.0536665 C86.7167493,95.5190975 86.7865521,95.9831087 86.8395549,96.44712 C86.9611775,97.5119087 88.6106535,98.8769679 89.5665972,98.5977566 C90.5809859,98.3015087 91.5695831,97.8890806 92.5257634,97.4354806 C92.8565577,97.2786017 93.0976732,96.8709059 93.3051887,96.5320665 C93.5335268,96.1589172 93.6260451,95.7008214 93.8636113,95.3354806 C95.5171099,92.7937115 96.6834085,90.1149397 96.3940225,86.9828045 C96.3717803,86.7428721 96.4564901,86.4120777 96.618338,86.24952 C97.551093,85.3122693 96.9739775,84.0600777 97.1904845,82.9936327 C97.3646366,82.1356496 97.4086479,81.0100496 97.231893,79.9878524 C97.1282535,79.3887313 97.5444676,78.7176777 97.5470704,78.0783313 C97.5525127,76.8327651 97.3878254,75.5874355 97.3724451,74.3409228 C97.3442873,72.0828608 97.3561183,69.8238524 97.388062,67.5657904 C97.4008394,66.6543313 97.3736282,65.7073792 97.6076451,64.8422975 C97.9353634,63.631751 98.483138,62.4798862 98.9495155,61.3079087 C99.8770648,58.9772045 101.133515,56.8722355 102.950518,55.0966411 C103.78271,54.2833792 104.560479,53.3527538 105.126473,52.3426242 C106.094721,50.6145904 106.952231,48.8132045 107.709177,46.9820045 C108.173662,45.8585341 108.495938,44.6380496 108.640513,43.4319989 C108.776806,42.2959876 108.551544,41.1214073 108.565031,39.9648101 C108.598158,37.131289 108.674823,34.2980045 108.741076,31.4649566 C108.748648,31.1433904 108.750304,30.8078637 108.84093,30.5047538 C109.459217,28.4378806 108.963972,26.4486186 108.45027,24.4598299 C108.26831,23.7565961 107.892558,23.0602242 107.893977,22.3612496 C107.897527,20.5139594 107.145076,19.0760214 105.755172,17.9726637 C104.38609,16.8856327 102.818248,16.2025115 101.023724,16.4862186 C99.586969,16.7136101 98.1372,16.9741285 96.7572338,17.4185003 C94.5611662,18.1257566 92.386631,18.9234017 90.262969,19.8246862 C88.6035549,20.5288665 87.0546423,21.4249454 85.2650873,21.8941623 C82.9698761,22.4963594 80.7477803,23.0803369 78.3434873,22.5884045 C76.8667437,22.2862411 75.5544507,21.1483369 75.5428563,19.8703538 C75.5369408,19.1893623 75.9581239,18.8216552 76.6133239,18.9697792 C76.9524,19.0464439 77.3300451,19.1105679 77.6002648,19.3050693 C79.0410423,20.3438299 80.6121972,20.3402806 82.2065408,19.8684608 C82.5846592,19.7565397 83.0600282,19.3152439 83.1208394,18.9619707 C83.1911155,18.5514355 82.9826535,17.9284158 82.6705521,17.6475482 C81.6649183,16.742951 80.6119606,15.8646186 79.470507,15.1455313 C78.4177859,14.4822862 77.2682873,13.9091932 76.085662,13.534151 C74.9789915,13.1830073 73.7701014,13.1614749 72.6113746,12.9636608 C70.6341803,12.6260045 68.4165803,13.6553003 67.3858648,15.3906693 C67.2159718,15.6769792 66.8868338,15.8797623 66.7562197,16.1762468 C66.5737859,16.5900946 66.6106986,17.1215425 66.3745521,17.4868834 C65.6483662,18.6096439 65.4403775,19.8161679 65.4957465,21.120889 C65.5163324,21.6083256 65.3911606,22.1075932 65.2910704,22.5931369 C65.1486254,23.2845397 64.8944958,23.960089 64.8185408,24.6569341 C64.6569296,26.1414862 64.6122085,27.6385792 64.4560394,29.1240777 C64.3367831,30.2560665 64.0455042,31.3724383 63.9615042,32.5053735 C63.7783606,34.9792327 64.0741352,37.4223313 64.6110254,39.8398749 C64.8483549,40.9084496 64.9704507,42.0087313 65.2868113,43.0515144 C65.6580676,44.2755482 66.2441746,45.4340383 66.6265521,46.6554693 C67.0448958,47.9923707 67.1809521,49.433858 67.7166592,50.7139707 C68.7599155,53.2069961 68.6865634,55.8744101 69.1162648,58.4545115 C69.4532113,60.4776101 69.4444563,62.5752439 69.414169,64.6373848 C69.390507,66.2608327 69.1027775,67.8807313 68.926969,69.5015763 C68.7951718,70.7151989 68.681831,71.9321341 68.5083887,73.1400777 C68.3888958,73.9725059 68.1139437,74.785058 68.0287606,75.6189059 C67.915893,76.7213172 68.0947775,77.8809904 67.8236113,78.9320552 C67.5744507,79.8977003 67.83,80.6369003 68.1605577,81.4506355 C68.2559155,81.6851256 68.2265746,81.9690693 68.2627775,82.229351 C68.3971775,83.1945228 68.5514535,84.1575651 68.665031,85.1251031 C68.7282085,85.6641228 68.6832507,86.2171031 68.7627549,86.7525735 C68.9042535,87.7075707 68.977369,88.7009003 69.3088732,89.59272 C69.7631831,90.8146242 70.429031,91.9582073 71.0089859,93.1327876 C71.6992056,94.5307369 72.5193296,95.7957059 74.2281972,96.072551 C75.9654592,96.3538918 77.1078592,95.7467256 77.0080056,93.821351 C76.9590254,92.8765285 76.8657972,91.9324158 76.8544394,90.98712 C76.8359831,89.4644721 77.3532338,87.9451369 76.7810873,86.4118411 C76.5972338,85.9196721 76.6216056,85.3283594 76.6414817,84.7855538 C76.7032394,83.0870975 76.7858197,81.3884045 76.9114648,79.6937341 C76.9460113,79.2280665 77.2304282,78.7829848 77.2782254,78.3158975 C77.4869239,76.2745792 77.6509014,74.2287651 77.8345183,72.144382 M57.8742254,33.5810468 L57.1726479,33.5810468 C57.1454366,33.4821397 57.1179887,33.3832327 57.0905408,33.2843256 C57.7225521,33.0988158 58.3545634,32.9135425 59.1174254,32.6899369 C58.9262366,32.437227 58.7842648,32.2034468 58.5987549,32.0120214 C56.3177408,29.655289 54.0260789,27.3089679 51.7469577,24.9508158 C50.9294366,24.1049003 50.0979549,23.2670299 49.3473972,22.3638524 C48.8114535,21.7185904 48.2916,21.7502975 47.7012338,22.1776327 C45.9005577,23.4814073 44.127093,24.8031651 42.7144732,26.5669285 C42.279093,27.1102073 41.5682873,27.4897454 40.9116676,27.783627 C40.2221577,28.0921792 39.0710028,27.4887989 38.6476901,26.8014186 C38.3838592,26.3733735 38.0445465,25.9917059 37.6264394,25.4408552 C37.2918592,26.9296665 36.9262817,28.1224665 35.7240169,28.9028383 C33.9713746,30.0407425 32.2364789,29.8041228 30.4566254,29.0625566 C29.5106197,28.6685848 28.9905296,27.9483144 28.6621014,26.9864552 C28.4687831,26.4206975 27.9588676,25.9694637 27.7194085,25.4119876 C26.907093,23.5213961 26.1598479,21.6028834 25.3690648,19.702827 C25.1551606,19.188889 24.9081296,18.6820496 24.618507,18.2073904 C23.9895718,17.177858 22.9867775,16.9069285 21.3373014,17.2327538 C20.7362873,17.3513003 20.1243887,17.4568327 19.5143831,17.4776552 C18.8575268,17.4998975 19.0314423,16.9282242 19.1372113,16.64712 C19.4178423,15.9001115 19.8241183,15.2016101 20.1478141,14.4695087 C20.5424958,13.5772158 20.9076,12.6721454 21.2786197,11.7699144 C22.0100113,9.99219042 23.2139324,8.81358761 25.2524113,8.70781859 C25.1120958,6.41402704 26.9193972,5.53545803 28.3320169,4.51444394 C29.4739437,3.68887775 30.4720056,2.88839324 31.0207268,1.54865239 C31.6392507,0.037835493 34.0643662,-0.545905352 35.223093,0.610455211 C37.5717803,2.9539369 39.8102028,5.40815662 42.0933465,7.81741859 C42.2549577,7.98802141 42.4045014,8.16998197 42.5703718,8.33585239 C48.8642197,14.6325397 55.157831,20.929227 61.4604338,27.2169228 C61.674338,27.4303538 61.9802873,27.5515031 62.2431718,27.7154806 C62.3761521,27.401013 62.6028338,27.0934073 62.6262592,26.7711313 C62.729662,25.3499932 62.7261127,23.9203369 62.8583831,22.5027482 C62.9402535,21.6237059 63.1636225,20.7524721 63.3822592,19.8925961 C63.6628901,18.7885285 63.8914648,17.6508608 64.3434085,16.6156496 C65.0073634,15.0953679 65.7522423,13.5885735 66.6629915,12.2083707 C67.0328282,11.6478186 67.8898648,11.3018806 68.5949915,11.0938918 C69.7035549,10.76712 70.8703268,10.6369792 72.0141465,10.4318299 C72.154462,10.4067482 72.3148901,10.3991763 72.4478704,10.441058 C74.0765239,10.9528665 75.781369,11.3075594 77.3096958,12.0335087 C79.8282761,13.229858 82.0489521,14.8670299 84.0886141,16.8383087 C85.3833972,18.0897904 87.2034761,18.812427 89.1730986,17.8796721 C91.0722085,16.9802806 92.957831,16.0319087 94.9208282,15.2953115 C96.0213465,14.8824101 97.285369,14.9294975 98.4424394,14.6370355 C100.152254,14.2044946 101.711814,14.7870524 103.311837,15.1677735 C103.675758,15.2543763 104.103093,15.2184101 104.401944,15.4013172 C104.873763,15.6899932 105.248332,16.1327087 105.687972,16.4798299 C106.364704,17.0143538 107.037651,17.559289 107.755082,18.0344214 C108.985741,18.8495763 109.144986,20.2188946 109.579183,21.4396158 C109.851532,22.2050806 109.96298,23.0280439 110.240299,23.7911425 C111.109403,26.1810017 111.594946,25.9739594 113.553921,25.4683031 C114.117076,25.3230186 114.643318,25.0289003 115.208603,24.8975763 C117.146045,24.4482355 119.045392,24.5140158 120.821696,25.5201228 C121.402124,25.8487876 121.953448,26.2340045 122.49507,26.6256101 C123.686214,27.4866693 124.960175,27.5727989 126.324287,27.1286637 C127.240952,26.8302862 128.169211,26.5647989 129.099363,26.3106693 C131.114417,25.7602918 133.936344,27.0569679 134.864839,28.9321792 C135.486439,30.18792 136.198665,31.4046186 136.72893,32.6967989 C136.990158,33.3330693 137.020918,34.1035031 137.001279,34.8086299 C136.92698,37.4829059 136.46013,40.0729454 135.530451,42.6106918 C135.109268,43.7606637 134.577346,44.7561228 133.891149,45.754658 C133.078597,46.9370468 132.494383,48.2798637 131.85267,49.5739369 C131.707859,49.8661623 131.800377,50.2719651 131.668817,50.5760214 C131.38298,51.2373735 130.931273,51.8369679 130.714056,52.5153566 C130.333572,53.7027144 130.071161,54.9286411 129.772783,56.1415538 C129.486473,57.3061961 129.331961,58.519582 128.902259,59.6274355 C128.58093,60.4560777 128.059893,61.2071087 127.391206,61.9141285 C126.828287,62.5094637 126.470518,63.3643707 125.662935,63.7564496 C125.35107,63.9078862 124.918293,63.9615989 124.58111,63.8839876 C122.606518,63.4296777 122.59729,63.4192665 121.50387,61.4328439 C121.042225,60.5942637 120.646834,59.7192439 120.224704,58.8588946 C119.631499,57.6500045 118.525775,57.5802017 117.697132,58.6814299 C116.824006,59.841813 115.99347,61.044551 115.022856,62.1195144 C113.297425,64.0309285 110.597594,63.6005172 109.396749,61.0303538 C108.28582,58.6527989 108.731375,56.2283932 108.569527,53.8139256 C108.550597,53.5292721 108.328885,53.2633115 108.237313,52.9772383 C107.993594,52.2141397 107.607431,52.5241115 107.305977,52.8837735 C106.958146,53.2988045 106.70591,53.7921566 106.383161,54.2303763 C105.050282,56.0402806 103.686169,57.8274693 102.381921,59.6577228 C102.078101,60.0841115 102.032907,60.6889115 101.75133,61.138489 C101.015206,62.3135425 100.882462,63.6523369 100.718721,64.9551651 C100.547408,66.3206975 101.435206,67.3464439 102.281594,68.271627 C103.167499,69.2396383 104.231341,70.0429623 105.139487,70.9927538 C106.810259,72.7406637 108.402237,74.5638186 110.067803,76.3166975 C111.655048,77.9874693 113.305944,79.5976665 114.906439,81.2561341 C115.987555,82.3762918 117.071983,83.4983425 118.078563,84.6845172 C119.346608,86.1782975 119.150924,88.2816101 117.858034,89.6464327 C117.38929,90.1414411 116.352659,90.1724383 115.557144,90.2680327 C114.087262,90.4452608 112.771893,90.9423989 111.670428,91.9205848 C111.289234,92.258951 111.068231,92.7721792 110.711882,93.1460383 C110.538913,93.3275256 110.222079,93.3715369 109.970552,93.4777792 C109.935769,93.1895763 109.799239,92.8673003 109.882293,92.6183763 C110.697921,90.1748045 110.601617,87.7186918 109.96582,85.2746468 C109.842777,84.8014073 109.391544,84.4003369 109.053414,83.9980834 C106.816885,81.3377679 104.129831,79.1435932 101.569606,76.8202242 C101.025144,76.3261623 100.233414,76.0355932 99.6357127,76.5426693 C99.1811662,76.9281228 98.7117127,77.6985566 98.7822254,78.2266918 C99.0119831,79.9466806 98.9599268,81.6640665 99.0072507,83.3823989 C99.0233408,83.9751313 99.0439268,84.5919989 98.9062141,85.1601228 C98.4833746,86.9070862 97.9874197,88.6363031 97.5144169,90.3711989 C97.2229014,91.4404834 96.9306761,92.5100045 96.6197577,93.5738468 C96.5314986,93.8755369 96.3980451,94.1698918 96.2466085,94.4465003 C95.5656169,95.689227 95.0452901,97.075582 94.1366704,98.1240439 C92.9874085,99.4507707 91.6199831,100.689238 89.5703831,100.416179 C89.0055718,100.340934 88.3768732,100.532833 87.8584394,100.359627 C86.1091099,99.775413 85.3734592,98.6105341 85.3867099,96.7007763 C85.3886028,96.4113904 85.3732225,96.1217679 85.3689634,95.8321454 C85.3531099,94.7190862 85.3512169,93.6053172 85.3188,92.4927313 C85.3008169,91.8732608 85.2116113,91.25592 85.1955211,90.6364496 C85.1858197,90.2701623 85.2620113,89.9022186 85.2899324,89.5345115 C85.4174704,87.8429172 85.5499775,86.1517961 85.6645014,84.4594918 C85.7932225,82.555413 85.9108225,80.6503876 86.0208507,78.744889 C86.0868676,77.6041454 86.1550141,76.4622186 86.1677915,75.3200552 C86.1722873,74.9260834 85.9837014,74.5337679 85.9325915,74.1343538 C85.7669577,72.8443031 85.7279155,71.5275144 85.4418423,70.2663313 C85.1846366,69.1331594 84.728907,68.0300383 84.2395775,66.9695087 C83.9045239,66.2433228 83.2178535,66.4300158 82.6476,66.7246073 C82.3414141,66.8826693 82.0638592,67.1306468 81.8296056,67.3890355 C80.5409746,68.8101735 79.9326254,70.6555707 79.9330986,72.4084496 C79.9340451,75.7940045 79.3465183,79.1135425 79.2350704,82.4725961 C79.1856169,83.9656665 79.4016507,85.4655989 79.4047268,86.9626918 C79.4085127,88.7647876 79.3136282,90.56712 79.2625183,92.3692158 C79.2416958,93.105813 79.3278254,93.8644158 79.1780451,94.5735651 C78.9949014,95.4417228 78.634293,96.2755707 78.3160394,97.1110749 C77.866462,98.2915707 75.5170648,99.3308045 74.3020225,98.9751651 C71.7685352,98.2338355 70.7219662,96.1253172 69.6389577,94.0295763 C69.1600394,93.1029735 68.6063493,92.2132834 68.1584282,91.2724834 C67.8333127,90.5893623 67.5855718,89.86152 67.3766366,89.1324946 C67.1367042,88.2948608 66.9677577,87.4359313 66.786507,86.5822073 C66.6596789,85.9847425 66.5408958,85.3834918 66.4594986,84.7784552 C66.2746986,83.4013285 66.0887155,82.0232552 65.9550254,80.6404496 C65.8752845,79.8144101 65.7938873,78.9677848 65.8859324,78.1497904 C66.2195662,75.1790299 66.7202535,72.2238862 66.9627887,69.2467369 C67.0725803,67.9008439 67.6186986,66.6865115 67.6929972,65.3029961 C67.7779437,63.7233228 67.9175493,62.201858 67.5886479,60.6351989 C67.4026648,59.7483482 67.4968394,58.805182 67.3399606,57.9091031 C67.095769,56.5142299 66.7713634,55.1311876 66.4244789,53.7573735 C66.3113746,53.3087425 65.4713746,53.2162242 65.056107,53.6305454 C64.5672507,54.1182186 64.1186197,54.6612608 63.7324563,55.2341172 C63.0670817,56.2212946 62.4473746,57.2406524 61.8409183,58.2654524 C61.573538,58.7171594 61.3788,59.2128777 61.1625296,59.693689 C60.8196676,60.4553679 60.6426761,61.3575989 60.1180901,61.9581397 C58.9148789,63.3352665 58.4861239,64.9771707 58.107769,66.6699482 C58.0824507,66.7839989 58.1240958,66.939458 58.0613915,67.0144665 C57.0072507,68.2761228 57.5836563,69.8806411 57.1608169,71.2381285 C56.710293,72.6838749 57.0046479,74.0569792 57.0912507,75.4473566 C57.1416507,76.2549397 57.0522085,77.0970693 57.4991831,77.9126975 C57.8233521,78.5042468 57.4610873,79.2919538 57.670969,80.0489003 C58.0635211,81.4645961 58.2341239,82.9560101 58.3633183,84.4275482 C58.5689408,86.7712665 58.5753296,89.1209003 57.7892789,91.3865341 C57.2258873,93.0106918 56.6161183,94.6187594 56.0252789,96.2332158 C55.4443775,97.8216439 54.3521408,98.8036158 52.6451662,99.0011932 C51.4982704,99.1337003 49.8622817,98.4200552 49.5712394,96.915627 C49.3947211,96.003458 49.2262479,95.0815876 49.1654366,94.1568777 C49.091138,93.0246524 49.0272507,91.8734975 49.146507,90.7507369 C49.4155437,88.220089 49.2863493,85.6934637 49.0591944,83.1855313 C48.9434873,81.9075482 48.3398704,80.6752327 47.9690873,79.4185454 C47.6143944,78.2165172 47.3600282,76.9761566 46.8979099,75.8179031 C46.6260338,75.1366749 46.0967155,74.5217003 45.5688169,73.9902524 C45.1093014,73.5274242 44.009493,73.7801341 43.6978648,74.4637285 C43.3481408,75.2315594 43.1888958,76.0916721 42.9934479,76.9226806 C42.737662,78.0085285 42.5211549,79.1038411 42.300862,80.1977341 C42.1884676,80.7568665 42.0798592,81.3190749 42.0143155,81.8848327 C41.9033408,82.8424327 41.6603324,83.8251144 41.7779324,84.7588158 C41.9497183,86.1236383 41.5394197,87.5665454 42.3316225,88.8679538 C42.5533352,89.2323482 42.5805465,89.7642693 42.5644563,90.2145566 C42.5268338,91.2703538 42.3576507,92.3223651 42.3380113,93.377689 C42.3181352,94.4351425 42.418462,95.4947256 42.4603437,96.5535989 C42.500569,97.5713003 41.8832282,98.6065115 41.0238254,98.9768214 C40.0411437,99.4003707 38.8537859,99.1703763 38.1112732,98.4560214 C37.1458648,97.5275256 36.0645127,96.7076383 35.4294254,95.4817115 C35.3785521,95.3835144 35.2569296,95.2952552 35.256693,95.2017904 C35.2512507,93.6251932 34.2451437,92.3812834 33.8604,90.9369566 C33.702338,90.343751 33.7650423,89.6949397 33.685538,89.076889 C33.5433296,87.9740045 33.2397465,86.8751425 33.2388,85.7746242 C33.2376169,84.0927313 33.4366141,82.4108383 33.5497183,80.7289454 C33.5792958,80.2885961 33.5991718,79.8475369 33.6358479,79.4076608 C33.7399606,78.1590186 33.7103831,76.8779594 33.9952732,75.6714355 C34.3246479,74.2765623 34.063893,72.8710411 34.3497296,71.4662299 C34.5532225,70.4653285 34.0986761,69.3383087 33.9832056,68.2626355 C33.8457296,66.9792101 33.8305859,65.6782749 33.6209408,64.4083369 C33.4801521,63.5550862 33.0684338,62.7496327 32.8235324,61.9093961 C32.5327268,60.9118073 32.2925577,59.8995482 32.027307,58.8943876 C31.8872282,58.3643594 31.7272732,57.8390637 31.5990254,57.3064327 C31.3278592,56.1808327 31.0084225,55.061858 30.826462,53.9215876 C30.6331437,52.7100946 30.5903155,51.475413 30.4440845,50.2554017 C30.4227887,50.0779369 30.193031,49.9243707 30.056738,49.7622862 C29.9668225,49.6553341 29.7943268,49.5561904 29.7903042,49.4485285 C29.7481859,48.3373623 29.7481859,47.2245397 29.7046479,46.1133735 C29.6727042,45.2949059 29.7692451,44.4137341 29.4978423,43.6747707 C28.9583493,42.204889 29.5588901,40.8320214 29.6540113,39.4302862 C29.717662,38.4897228 30.4369859,37.5716383 30.418293,36.6528439 C30.3951042,35.5158862 30.9329408,34.7305454 31.5237803,33.9859031 C32.3150366,32.9883144 33.1756225,31.9606749 34.2207718,31.2706918 C35.4897634,30.4328214 37.0699099,30.6524045 38.5168394,30.8464327 C40.592231,31.1246975 42.0713408,32.3965285 43.4546197,33.9170468 C44.6239944,35.2021285 45.9426761,36.4183538 47.6293014,37.0397172 C47.9676676,37.1644158 48.4586535,36.9490918 48.8571211,36.8210806 C49.686,36.5544101 50.5054141,36.2555594 51.3184394,35.9429848 C51.8558028,35.7364158 52.4385972,35.5684158 52.889831,35.2335989 C54.0310479,34.3872101 55.483893,34.3893397 56.698462,33.7440777 C56.9764901,33.596427 57.4542254,33.8252383 57.8401521,33.8806073 C57.8515099,33.7807538 57.8628676,33.6809003 57.8742254,33.5810468" id="Fill-1" fill="#FFFFFF"/>
            <path d="M134.329606,40.6950186 C134.51133,41.761227 133.700197,42.248427 133.075994,42.8447087 C133.493865,42.1282242 133.911735,41.4115031 134.329606,40.6950186" id="Fill-3" fill="#FFFFFF"/>
            <path d="M85.3660293,52.1569961 C83.1392011,52.1569961 81.17928,52.2722299 79.2432575,52.1061228 C78.3377138,52.0282749 77.4499166,51.4618073 76.6061307,51.0174355 C75.5368462,50.4545172 74.5113363,49.8049961 73.4853532,49.16352 C73.0170828,48.8705848 72.5348518,48.5601397 72.1699842,48.1569397 C71.9449589,47.908489 71.7729363,47.4286242 71.853387,47.1262242 C72.0142885,46.5221341 72.2518546,45.8584158 72.671618,45.4277679 C73.0334096,45.0565115 73.6919223,44.9741679 74.219111,44.7642862 C74.3582434,45.1845228 74.5456462,45.5952946 74.6282265,46.0264158 C75.01368,48.0341341 76.2095561,49.3376721 78.2735899,49.7065623 C79.6606546,49.9545397 81.0074941,50.5903369 82.4735899,50.2711369 C82.5012744,50.2652214 82.5348744,50.2678242 82.5616124,50.2777623 C84.1029532,50.8539313 85.5420744,50.077582 87.0313589,49.9658975 C87.9858828,49.8942017 88.8355842,49.7607482 89.7023223,49.2652665 C91.1350546,48.4458524 92.022142,47.3794073 92.2424349,45.7107651 C92.2944913,45.3172665 92.7996744,44.6807594 93.080542,44.6890411 C93.5402941,44.7027651 94.0625138,45.0789904 94.4190997,45.4398355 C94.8182772,45.8432721 95.0236631,46.4305623 95.3823786,46.8834524 C96.1035955,47.7946749 96.0574546,48.6422468 94.8152011,49.108151 C93.0242265,49.7799144 91.3177251,50.6729172 89.5485194,51.4071482 C88.1304575,51.9953848 86.6624687,52.4253228 85.3660293,52.1569961" id="Fill-5" fill="#FFFFFF"/>
            <path d="M96.2398411,34.5686501 C96.2616101,33.7059346 95.3981848,32.7443121 94.6166299,32.6648079 C94.046613,32.6068361 93.7321454,33.0105093 93.9841454,33.5322558 C94.2210017,34.0225318 94.4756045,34.5210896 94.8177566,34.9380135 C95.0314242,35.1985318 95.4213735,35.3147121 95.7322918,35.4957262 C95.9151989,35.1618558 96.0978693,34.8279854 96.2398411,34.5686501 M90.2152665,34.60296 C90.0250242,32.0266445 93.1578693,29.7032755 95.7280327,30.7190839 C97.2360101,31.315129 98.5814299,33.0483685 98.3545115,34.6332473 C98.2139594,35.6156924 97.8912101,36.6473544 97.3708834,37.4828586 C96.5720552,38.7660473 95.189013,38.7970445 93.82632,38.6160304 C92.1744777,38.3969206 91.0720665,37.3875008 90.3108608,36.0054051 C90.1057115,35.6334389 90.237982,35.0754896 90.2152665,34.60296" id="Fill-7" fill="#FFFFFF"/>
            <path d="M74.7601893,30.1458017 C75.522578,29.9896327 76.1661837,29.8575989 76.8097893,29.7255651 C76.8152315,29.6347031 76.8209104,29.5438411 76.8265893,29.4529792 C76.2487639,29.4011594 75.670702,29.3491031 75.104471,29.2982299 C74.9939696,29.5703425 74.9120992,29.7714693 74.7601893,30.1458017 M77.1583301,29.9664439 C76.85664,30.2454186 76.6865104,30.3518975 76.5854738,30.5042806 C76.0277611,31.3459369 76.3417555,32.1405059 76.8608992,32.8226806 C77.0229837,33.0356383 77.6474231,33.1480327 77.8693724,33.0067707 C78.2247752,32.7803256 78.7256992,32.1513904 78.6301048,31.9606749 C78.2803808,31.2633566 77.7096541,30.6767763 77.1583301,29.9664439 M79.5481893,32.0177003 C79.9282006,34.1908158 78.7254625,35.3616101 77.0589499,36.2082355 C75.5405611,36.9798524 73.657778,36.0347932 72.8182513,34.906827 C71.8410118,33.5935876 71.7489668,32.2794017 72.1256654,30.7844383 C72.5849442,28.9605735 75.2620597,27.0796834 77.5974963,28.3460721 C79.2346682,29.2336327 79.8837161,30.3320214 79.5481893,32.0177003" id="Fill-9" fill="#FFFFFF"/>
            <path d="M38.7773104,57.5212597 C39.7230794,58.2829386 40.3245668,58.8929442 41.0365555,59.3176766 C43.6249386,60.8628034 46.4011977,60.9891583 49.1386513,59.9016541 C50.1840372,59.4863865 51.3647696,58.9504428 51.8514963,57.6708034 C52.0672935,57.1031527 52.5552034,57.0196259 53.0890175,57.3724259 C54.2146175,58.1163583 54.8631921,58.6903977 53.3052879,59.8148146 C50.964409,61.5047527 48.3594625,62.6618231 45.4282175,62.6691583 C44.301671,62.6719977 43.1450738,62.2725837 42.0537837,61.9039301 C40.8335358,61.4919752 39.679778,60.8869386 38.482009,60.4035245 C37.4314175,59.979502 37.994809,59.0969104 37.9642851,58.4490456 C37.937547,57.8830513 38.4124428,57.4613949 38.7773104,57.5212597" id="Fill-11" fill="#FFFFFF"/>
            <path d="M39.204622,46.8662265 C39.1705487,46.8792406 38.7869882,46.9121307 38.6958896,47.0924349 C38.5953262,47.2919054 38.6665487,47.7358039 38.8317093,47.8813251 C39.2848361,48.2797927 39.824329,48.5810096 40.3396868,48.904942 C40.3633487,48.9200856 40.5112361,48.7949138 40.5554839,48.7111504 C40.935022,47.9911166 40.2649149,46.8745082 39.204622,46.8662265 M35.8256924,49.4688068 C35.799191,49.176818 35.8171741,48.8722885 35.7386163,48.5952068 C35.2906952,47.0136406 36.1053769,45.6660913 37.6940417,45.3755223 C38.8967797,45.1554659 40.0469882,45.0620011 41.0859854,45.9514546 C41.9943685,46.728987 42.4763628,48.8074546 42.2073262,49.9470152 C41.8964079,51.2642772 40.82736,51.5737758 39.9059628,52.1314885 C39.8356868,52.1738434 39.7202163,52.2012913 39.649467,52.17408 C38.3783459,51.6854603 36.8426839,51.7424856 35.9581994,50.4628462 C35.7812079,50.2068237 35.8029769,49.8133251 35.7331741,49.4832406 C35.7639346,49.4785082 35.7946952,49.4735392 35.8256924,49.4688068" id="Fill-13" fill="#FFFFFF"/>
            <path d="M53.7042051,47.9342096 C53.6583008,47.9618941 53.1895572,48.1599448 53.2091966,48.246311 C53.2939065,48.6156744 53.4656924,49.0018377 53.7143797,49.2869645 C53.9609375,49.5697251 54.3198896,49.7788969 54.6679572,49.9350659 C54.7824811,49.9864124 55.1210839,49.81368 55.1778727,49.6719448 C55.4587403,48.9677645 54.7152811,47.9294772 53.7042051,47.9342096 M53.8856924,52.8800349 C51.718729,53.3014546 49.9085882,50.9745363 50.0171966,49.3894208 C50.1688699,47.1730039 50.8441825,46.2291279 53.3696248,46.1905589 C54.7581093,46.1694997 56.9215234,48.2406321 56.8583459,49.3177251 C56.7128248,51.8022321 55.8325994,52.9089025 53.8856924,52.8800349" id="Fill-15" fill="#FFFFFF"/>
            <path d="M116.841374,41.0303797 C117.101419,40.6931966 117.299469,40.3238332 117.604235,40.0983346 C117.718523,40.0138614 118.119593,40.2133318 118.321666,40.3709206 C118.872517,40.800622 119.406331,41.2565882 119.911278,41.7397656 C120.610016,42.4079797 123.12339,42.4986051 123.883886,41.8497938 C124.259165,41.5301206 124.645802,41.2201487 124.992923,40.8718445 C125.598196,40.2646783 126.007548,40.2433825 126.604303,40.7977825 C127.179526,41.3325431 126.911435,41.8308642 126.503976,42.243529 C124.913419,43.8541994 122.150647,44.6535008 119.910805,43.5191459 C118.838917,42.9761037 117.837779,42.5128023 117.168619,41.4984135 C117.07823,41.3616473 116.980743,41.2293769 116.841374,41.0303797" id="Fill-17" fill="#FFFFFF"/>
            <path d="M117.910469,33.7140744 C117.512238,33.7424687 117.19635,33.7651842 116.880463,33.7876631 C116.848046,33.8778152 116.815629,33.9679673 116.783449,34.0581194 C117.167483,34.3730603 117.551517,34.6880011 117.935787,35.0027054 C118.008429,34.9771504 118.081308,34.9515955 118.154187,34.9258039 C118.079179,34.5533645 118.004407,34.1806885 117.910469,33.7140744 M114.565849,34.3896237 C114.444463,33.1778941 115.51635,32.7851054 116.29128,32.2273927 C116.919269,31.7752124 117.530221,32.0873138 118.12248,32.5172518 C119.395257,33.4410152 119.648677,34.4357645 118.856474,35.8046096 C118.629319,36.1973983 118.415415,36.6117194 118.114908,36.9434603 C117.922773,37.1554715 117.582277,37.3544687 117.309928,37.3523392 C115.936587,37.3419279 114.561117,35.854773 114.565849,34.3896237" id="Fill-19" fill="#FFFFFF"/>
            <path d="M128.285912,35.3653014 C128.234566,35.4329746 128.182983,35.5006479 128.131636,35.5683211 C128.487985,35.9052676 128.841022,36.246 129.207546,36.5718254 C129.23736,36.5983268 129.428549,36.5157465 129.426656,36.4949239 C129.389506,36.1009521 129.334374,35.7086366 129.289653,35.3653014 L128.285912,35.3653014 Z M130.703692,36.1217746 C130.703219,37.5973352 129.633698,38.7979437 128.312177,38.806462 C127.090746,38.814507 126.473168,37.9125127 126.36669,36.2852789 C126.308718,35.3951155 127.998892,33.6808056 128.785653,33.7411437 C129.583535,33.8021915 130.704166,35.1457183 130.703692,36.1217746 L130.703692,36.1217746 Z" id="Fill-21" fill="#FFFFFF"/>
            <path d="M96.2398411,34.5686501 C96.0978693,34.8279854 95.9151989,35.1618558 95.7322918,35.4957262 C95.4213735,35.3147121 95.0314242,35.1985318 94.8177566,34.9380135 C94.4756045,34.5210896 94.2210017,34.0225318 93.9841454,33.5322558 C93.7321454,33.0105093 94.046613,32.6068361 94.6166299,32.6648079 C95.3981848,32.7443121 96.2616101,33.7059346 96.2398411,34.5686501" id="Fill-23" fill="#FFFFFF"/>
            <path d="M77.1584485,29.9663493 C77.7095358,30.6766817 78.2802625,31.263262 78.6299865,31.9608169 C78.7255808,32.1512958 78.2248935,32.7804676 77.8694907,33.0066761 C77.6475414,33.147938 77.023102,33.0357803 76.8610175,32.8228225 C76.3416372,32.1404113 76.0278794,31.3460789 76.5855921,30.5044225 C76.6866287,30.3520394 76.8565217,30.2453239 77.1584485,29.9663493" id="Fill-25" fill="#FFFFFF"/>
            <path d="M74.7601893,30.1458017 C74.9120992,29.7714693 74.9939696,29.5703425 75.104471,29.2982299 C75.670702,29.3491031 76.2487639,29.4011594 76.8265893,29.4529792 C76.8209104,29.5438411 76.8152315,29.6347031 76.8097893,29.7255651 C76.1661837,29.8575989 75.522578,29.9896327 74.7601893,30.1458017" id="Fill-27" fill="#FFFFFF"/>
            <path d="M39.204622,46.8662265 C40.2649149,46.8745082 40.935022,47.9911166 40.5554839,48.7111504 C40.5112361,48.7949138 40.3633487,48.9200856 40.3396868,48.904942 C39.824329,48.5810096 39.2848361,48.2797927 38.8317093,47.8813251 C38.6665487,47.7358039 38.5953262,47.2919054 38.6958896,47.0924349 C38.7869882,46.9121307 39.1705487,46.8792406 39.204622,46.8662265" id="Fill-29" fill="#FFFFFF"/>
            <path d="M53.7042051,47.9342096 C54.7152811,47.9294772 55.4587403,48.9677645 55.1778727,49.6719448 C55.1210839,49.81368 54.7824811,49.9864124 54.6679572,49.9350659 C54.3198896,49.7788969 53.9609375,49.5697251 53.7143797,49.2869645 C53.4656924,49.0018377 53.2939065,48.6156744 53.2091966,48.246311 C53.1895572,48.1599448 53.6583008,47.9618941 53.7042051,47.9342096" id="Fill-31" fill="#FFFFFF"/>
            <path d="M117.910469,33.7140744 C118.004407,34.1806885 118.079179,34.5533645 118.154187,34.9258039 C118.081308,34.9515955 118.008429,34.9771504 117.935787,35.0027054 C117.551517,34.6880011 117.167483,34.3730603 116.783449,34.0581194 C116.815629,33.9679673 116.848046,33.8778152 116.880463,33.7876631 C117.19635,33.7651842 117.512238,33.7424687 117.910469,33.7140744" id="Fill-33" fill="#FFFFFF"/>
            <path d="M128.285912,35.3653014 L129.289653,35.3653014 C129.334374,35.7086366 129.389506,36.1009521 129.426656,36.4949239 C129.428549,36.5157465 129.23736,36.5983268 129.207546,36.5718254 C128.841022,36.246 128.487985,35.9052676 128.131636,35.5683211 C128.182983,35.5006479 128.234566,35.4329746 128.285912,35.3653014" id="Fill-35" fill="#FFFFFF"/>
            <g id="Group-39" transform="translate(0.000000, 45.558524)">
                <mask id="mask-2" fill="white">
                    <use xlink:href="#path-1"/>
                </mask>
                <g id="Clip-38"/>
                <path d="M27.9658952,10.0273285 C28.0517882,8.39820169 27.1587854,7.62847775 26.5189656,6.73784113 C25.8152586,5.75823549 24.8971741,5.20620169 23.6388304,5.30463549 C23.2330276,5.33634254 22.8085318,5.29872 22.4088811,5.21519324 C20.3218952,4.7791031 18.2656699,5.11865239 16.2428079,5.55024676 C14.6948417,5.88056789 13.1847346,6.35286085 11.5752473,6.27927211 C10.0741318,6.21041577 9.39858254,5.7222693 9.08766423,4.42582986 C8.9433262,3.82457915 8.55432338,3.11424676 8.05742197,2.80261859 C7.20843042,2.27046085 4.86755155,2.9095707 4.27434592,3.74791437 C3.5337262,4.79472 2.65965296,5.75847211 2.63504451,7.21131718 C2.60310085,9.09859606 2.21954028,10.9863482 2.2678107,12.8665285 C2.32199662,14.9759932 2.67597972,17.0788327 2.92514028,19.1814355 C3.07870648,20.4778749 3.27841352,21.7686355 3.46132056,23.061289 C3.57844732,23.8885115 3.71923606,24.7128946 3.80820507,25.54272 C3.82429521,25.6941566 3.63878535,25.8649961 3.55265577,26.0301566 C3.48947831,26.1510693 3.39222761,26.2755313 3.38631211,26.4018862 C3.3321262,27.5764665 3.62056563,28.8984608 3.17453746,29.8925003 C2.51555155,31.3607256 2.95448113,32.8791144 2.48479099,34.319182 C2.22119662,35.1279482 2.2857938,36.0448496 2.21173183,36.9139538 C2.16227831,37.494382 2.09768113,38.0762299 2.09578817,38.6576045 C2.09247549,39.6916327 2.11069521,40.7268439 2.15967549,41.7594524 C2.19374873,42.4726242 2.24911775,43.1912383 2.37949521,43.8916327 C2.49117972,44.4919369 2.74483606,45.06432 2.89627268,45.659182 C3.12390085,46.5543144 3.81956282,47.008151 4.71753465,46.8084439 C5.41698254,46.6529848 6.21320789,45.7566693 6.39374873,45.0297735 C6.49241915,44.632489 6.73566423,44.272827 6.89230648,43.8873735 C7.06669521,43.4588552 7.31703887,43.0298637 7.3593938,42.5843087 C7.51343324,40.9608608 7.51508958,39.3199031 7.73325296,37.7068665 C7.85842479,36.7816834 7.96750648,35.8401735 8.82548958,35.0844101 C10.4179403,33.6812552 11.4604868,33.5250862 13.018391,34.9549792 C13.6033149,35.4916327 14.0943008,36.1837454 14.4589318,36.8919482 C14.8129149,37.5790918 15.0765093,38.3649059 15.155067,39.1303707 C15.3093431,40.6338524 15.3183346,42.152951 15.365422,43.6661341 C15.3893206,44.4330186 15.2681713,45.2167031 15.387191,45.9648946 C15.5367346,46.9035651 15.7965431,47.8408158 16.1408248,48.7274299 C16.3750783,49.33152 16.7231459,49.9424721 17.6130727,49.8511369 C18.6636642,49.7434749 19.4634389,48.8765003 19.4968023,47.7854468 C19.5682614,45.4325003 19.7424135,43.0812101 19.7608699,40.7285003 C19.7847685,37.6548101 20.8161938,34.8156101 21.5972755,31.9082637 C22.39776,28.9282749 23.6854445,26.226551 25.4016473,23.6469228 C26.3568811,22.2111144 26.854729,20.4234524 27.3315177,18.7302017 C27.7784924,17.1424834 27.9341882,15.4717115 28.1999121,13.8345397 C28.2548079,13.4957003 28.2640361,13.1410073 28.2356417,12.7986186 C28.1488023,11.7492101 28.0330952,10.7019313 27.9658952,10.0273285 M0.471157183,44.6367482 C0.319957183,43.5248721 0.0913825352,42.416782 0.0379064789,41.3001735 C-0.0233780282,40.0158017 -0.0198287324,38.7141566 0.119067042,37.4380665 C0.29700507,35.8039707 0.662819155,34.1911707 0.90180507,32.5625172 C1.1254107,31.0367932 1.41385014,29.5044439 1.43703887,27.9713848 C1.45360225,26.8860101 0.982255775,25.8018186 0.901095211,24.7041397 C0.819698028,23.6069341 1.03147268,22.4896158 0.970661408,21.3890975 C0.900148732,20.1070918 0.657376901,18.8352608 0.520137465,17.555858 C0.437083944,16.7835313 0.261275493,15.9790242 0.389286761,15.2341454 C0.815438873,12.7562637 0.610289577,10.2816946 0.59136,7.79789746 C0.575979718,5.77337915 1.22976,3.88752 2.6229769,2.35114817 C3.39388394,1.50097352 4.03488676,0.480669296 5.34410366,0.276939718 C6.0825938,0.161942535 6.73353465,0.0644552113 7.47628394,0.404241127 C8.27984451,0.771948169 9.26157972,0.764139718 10.0436079,1.16071437 C10.9647685,1.62780169 11.835529,2.27022423 12.5778051,2.99144113 C13.2505149,3.64474817 13.8773206,3.85675944 14.758729,3.57305239 C17.4057938,2.72074817 20.1186389,2.22479324 22.8920586,2.6646693 C23.9293994,2.82935662 24.9123177,3.35512563 25.9099065,3.74247211 C26.338898,3.90881577 26.7267177,4.18589746 27.1597318,4.33686085 C28.9071685,4.94568338 30.2771966,6.77167775 30.3389544,8.64807211 C30.37776,9.82407211 30.4307628,11.0014918 30.4021318,12.1765454 C30.3867515,12.8024045 30.221591,13.4263707 30.1058839,14.0479707 C29.9873375,14.6847144 29.7549769,15.3141228 29.7329713,15.9522862 C29.6712135,17.7423144 29.2419854,19.415689 28.6076079,21.0930862 C28.1109431,22.406089 27.7399234,23.7309228 26.9522163,24.9407594 C25.9409037,26.4939313 25.0699065,28.1479031 24.2590107,29.8172552 C23.938391,30.4767144 23.9961262,31.3091425 23.7857713,32.0353285 C23.4495346,33.1954749 22.9377262,34.3111369 22.6746051,35.4845341 C22.332453,37.0100214 22.3040586,38.6145397 21.8783797,40.110213 C21.3963854,41.8039369 21.6287459,43.4960045 21.5662783,45.1807369 C21.4879572,47.2902017 20.9392361,49.2160496 19.86096,50.9895144 C18.4130839,53.3713285 16.7387628,52.9383144 15.242853,50.9412439 C14.1577149,49.492658 13.6347854,47.9115651 13.551022,46.0493679 C13.4511685,43.8237228 12.9755628,41.6115651 12.6061994,39.4031932 C12.4519234,38.4799031 11.9058051,37.7911031 10.9732868,37.4830242 C10.2915854,37.2579989 9.60302197,37.6212101 9.67968676,38.3033848 C9.80959099,39.4587989 9.45134873,40.4940101 9.15486423,41.55312 C8.6913262,43.2101679 8.31983324,44.9098073 7.66818254,46.4918468 C7.22948958,47.5573454 6.4521938,48.5187313 5.68365296,49.4025059 C4.99792901,50.1904496 3.03848113,49.6819538 2.39724169,49.1050749 C1.31707268,48.1335144 0.126638873,46.470551 0.471157183,44.6367482" id="Fill-37" fill="#FFFFFF" mask="url(#mask-2)"/>
            </g>
            <path d="M12.1583256,72.0057465 C11.3893115,71.7031099 10.3548101,71.4934648 9.56024113,70.939538 C8.1859538,69.9817014 6.78989746,68.9933408 5.98207775,67.4150873 C5.64252845,66.7518423 5.89145239,66.3448563 6.38859042,66.002231 C6.98487211,65.5912225 7.36795944,66.0119324 7.57807775,66.4787831 C8.15803268,67.7667042 9.09078761,68.7148394 10.2745961,69.4249352 C11.4690524,70.1416563 12.767858,70.281262 14.11872,69.9734197 C14.3181904,69.9279887 14.5115087,69.8297915 14.711689,69.8165408 C15.7310468,69.7483944 16.5651313,69.3910986 17.2040045,68.534062 C17.3902242,68.2839549 17.8778975,68.142693 18.2214693,68.152631 C18.7389566,68.1680113 19.2131425,68.4462761 19.2084101,69.057938 C19.2062806,69.3208225 19.0588665,69.7377465 18.8655482,69.8191437 C17.4460665,70.4182648 16.0100214,70.9837859 14.5543369,71.4880225 C13.8719256,71.7244056 13.1341454,71.801307 12.1583256,72.0057465" id="Fill-40" fill="#FFFFFF"/>
            <path d="M21.2086986,59.8809262 L20.2011718,59.8809262 C20.1545577,59.9564079 20.1079437,60.0321262 20.061093,60.1076079 C20.4456,60.4384023 20.830107,60.7691966 21.2146141,61.099991 C21.2872563,61.0706501 21.3598986,61.0415459 21.4325408,61.0122051 C21.357769,60.63456 21.2829972,60.2569149 21.2086986,59.8809262 M19.7963155,58.4382558 C21.5018704,58.4403854 22.4166423,59.2626389 22.4081239,60.7855234 C22.3965296,62.8249487 21.998062,63.3753262 20.5525521,63.3481149 C18.5531155,63.310729 17.6541972,62.5817037 17.6489915,60.9932755 C17.6444958,59.5577037 18.5864789,58.4368361 19.7963155,58.4382558" id="Fill-42" fill="#FFFFFF"/>
            <path d="M8.13792,57.9169589 C8.08893972,57.9881814 8.04019606,58.0591673 7.99121577,58.1303899 C8.37572282,58.470649 8.75999324,58.8111448 9.14450028,59.1516406 C9.21879887,59.118987 9.29309746,59.0865701 9.36715944,59.0539166 C9.28954817,58.6708293 9.21170028,58.287742 9.13645521,57.9169589 L8.13792,57.9169589 Z M8.22168338,61.4151448 C7.27354817,61.331618 5.7894693,60.0988293 5.81005521,59.312542 C5.84744113,57.8866715 7.17298479,56.4581983 8.41523831,56.4877758 C9.42039887,56.511911 10.7613228,58.265973 10.7461792,59.5366208 C10.7364777,60.3524856 9.26730592,61.4456687 8.22168338,61.4151448 L8.22168338,61.4151448 Z" id="Fill-44" fill="#FFFFFF"/>
            <path d="M21.2086986,59.8809262 C21.2829972,60.2569149 21.357769,60.63456 21.4325408,61.0122051 C21.3598986,61.0415459 21.2872563,61.0706501 21.2146141,61.099991 L20.061093,60.1076079 C20.1079437,60.0321262 20.1545577,59.9564079 20.2011718,59.8809262 L21.2086986,59.8809262 Z" id="Fill-46" fill="#FFFFFF"/>
            <path d="M8.13792,57.9169589 L9.13645521,57.9169589 C9.21170028,58.287742 9.28954817,58.6708293 9.36715944,59.0539166 C9.29309746,59.0865701 9.21879887,59.118987 9.14450028,59.1516406 C8.75999324,58.8111448 8.37572282,58.470649 7.99121577,58.1303899 C8.04019606,58.0591673 8.08893972,57.9881814 8.13792,57.9169589" id="Fill-48" fill="#FFFFFF"/>
            <path d="M161.62679,47.2410794 C161.553201,47.5564935 161.504221,47.804471 161.479849,47.9861949 C161.455241,48.1679189 161.433945,48.3652597 161.415488,48.5767977 C161.397269,48.7890456 161.388041,49.0524034 161.388041,49.3673442 C161.388041,49.9248203 161.531669,50.3187921 161.819635,50.5485499 C162.106655,50.7787808 162.556469,50.9119977 163.168604,50.9482006 L162.911398,52.1476259 L153.422238,52.1476259 L153.679207,50.9482006 C154.193381,50.8029161 154.587826,50.6029724 154.863015,50.3486062 C155.138677,50.09424 155.373877,49.7338682 155.569798,49.2672541 C155.765483,48.8013499 155.961167,48.1255639 156.157325,47.2410794 L159.497686,32.2488541 C159.656457,31.5342625 159.736198,30.8255865 159.736198,30.1228259 C159.736198,29.6138569 159.616705,29.2414175 159.378193,29.0050344 C159.13968,28.7688879 158.750914,28.6143752 158.213077,28.541733 L158.469573,27.3423076 L175.832728,27.3423076 L174.529426,33.1939132 L172.180266,33.1939132 C172.118981,32.0432315 172.008717,31.237778 171.849945,30.7768428 C171.6907,30.3168541 171.446035,29.9839301 171.115714,29.7773611 C170.785393,29.5717386 170.320198,29.4685724 169.720841,29.4685724 L165.572897,29.4685724 L163.553584,38.5547696 L166.013483,38.5547696 C166.478204,38.5547696 166.881877,38.4613048 167.224503,38.2729555 C167.567128,38.0855527 167.885618,37.7888315 168.179263,37.3825555 C168.472908,36.9769893 168.784773,36.392302 169.115094,35.6289668 L171.13417,35.6289668 L169.206903,43.733902 L167.316311,43.733902 C167.316311,42.8860935 167.270643,42.2559752 167.178835,41.8437837 C167.087026,41.4325386 166.924705,41.1351076 166.692345,40.9533837 C166.459984,40.7716597 166.098903,40.6807977 165.609336,40.6807977 L163.094779,40.6807977 L161.62679,47.2410794 Z" id="Fill-50" fill="#FFFFFF"/>
            <path d="M178.338838,44.5152439 L183.679819,44.5152439 L183.459526,41.7167425 C183.275909,39.451582 183.172033,37.821982 183.147661,36.8284158 L182.964044,36.8284158 L178.338838,44.5152439 Z M181.899255,52.1476496 L182.156224,50.9482242 C182.633723,50.875582 183.006872,50.7456777 183.275909,50.5575651 C183.544945,50.3699256 183.734714,50.1278637 183.844979,49.8306693 C183.955007,49.5339482 184.01014,49.143289 184.01014,48.6584552 C184.01014,48.4405285 183.997835,48.2107707 183.973464,47.9679989 C183.961159,47.7259369 183.942703,47.4715707 183.918331,47.2046637 L183.844979,46.4051256 L177.292506,46.4051256 C176.888833,47.0839876 176.585959,47.6682017 176.384123,48.1587144 C176.18205,48.6494637 176.08125,49.082951 176.08125,49.4582299 C176.08125,49.9066242 176.191278,50.2459369 176.411571,50.4756946 C176.631864,50.7061623 176.980405,50.8639876 177.457903,50.9482242 L177.200697,52.1476496 L169.969126,52.1476496 L170.226095,50.9300045 C170.568957,50.8457679 170.856686,50.7366862 171.089047,50.6029961 C171.321407,50.4700158 171.569385,50.2551651 171.832269,49.9579707 C172.09539,49.6612496 172.394951,49.2582862 172.731661,48.7493172 C173.067897,48.2405848 173.548472,47.4895538 174.172438,46.4959876 L183.037396,32.4488214 L187.552574,32.4488214 L189.094151,47.7680552 C189.167503,48.5313904 189.2657,49.1193904 189.388033,49.5308721 C189.509892,49.942827 189.681678,50.2608439 189.901971,50.4849228 C190.122027,50.7094749 190.434128,50.8639876 190.837802,50.9482242 L190.580833,52.1476496 L181.899255,52.1476496 Z" id="Fill-52" fill="#FFFFFF"/>
            <path d="M201.841825,46.8776315 C201.780541,47.1566062 201.713341,47.5318851 201.639989,48.0044146 C201.566637,48.4767076 201.529961,48.9071189 201.529961,49.2944654 C201.529961,49.8034344 201.645904,50.188178 201.878501,50.4484597 C202.110862,50.7094513 202.496315,50.8755583 203.034625,50.9482006 L202.77813,52.1476259 L193.912935,52.1476259 L194.169904,50.9482006 C194.451245,50.8755583 194.674377,50.7936879 194.839538,50.7028259 C195.004699,50.6119639 195.157555,50.4912879 195.29858,50.339378 C195.438896,50.188178 195.579921,49.9851583 195.72071,49.7307921 C195.861262,49.4761893 195.996135,49.1555696 196.12462,48.7675132 C196.253104,48.3801668 196.378513,47.9017217 196.500845,47.3319414 L198.611256,37.9005161 C198.697149,37.5254738 198.770265,37.100978 198.831786,36.6284485 C198.892597,36.1559189 198.923594,35.8047752 198.923594,35.5745442 C198.923594,35.0052372 198.806941,34.5904428 198.574817,34.3296879 C198.342456,34.0694062 197.956766,33.9025893 197.418456,33.829947 L197.675425,32.6305217 L206.540383,32.6305217 L206.283651,33.829947 C205.659685,33.9636372 205.17911,34.3055527 204.842873,34.85664 C204.505927,35.4082006 204.197138,36.3260485 203.915797,37.6097104 L201.841825,46.8776315 Z" id="Fill-54" fill="#FFFFFF"/>
            <path d="M217.324019,42.1346603 C218.37603,42.1346603 219.238983,42.0322039 219.911929,41.8256349 C220.584639,41.6200124 221.147557,41.29608 221.600447,40.8536011 C222.053101,40.4115955 222.399039,39.8694997 222.637552,39.2270772 C222.876064,38.5851279 222.995321,37.8823673 222.995321,37.1190321 C222.995321,36.2714603 222.717056,35.641342 222.160053,35.2291504 C221.603287,34.8176687 220.719275,34.6113363 219.508019,34.6113363 C218.994318,34.6113363 218.492211,34.6295561 218.002881,34.6657589 L216.295906,42.1346603 L217.324019,42.1346603 Z M222.518059,43.4611504 C223.044064,43.8494434 223.463354,44.2640011 223.775456,44.7060068 C224.087321,45.1487223 224.353518,45.7632237 224.573811,46.5504575 L225.087749,48.4585589 C225.295501,49.2465025 225.576842,49.8337927 225.931771,50.2213758 C226.286937,50.6094321 226.806791,50.8514941 227.492042,50.9482715 L227.235073,52.1476969 L221.031614,52.1476969 C220.615399,51.0935561 220.278926,50.0214321 220.021957,48.9310885 L219.416447,46.2960913 C219.318014,45.8846096 219.201833,45.5211617 219.06767,45.2057476 C218.932797,44.8910434 218.770712,44.6456687 218.58118,44.4698603 C218.391411,44.2945251 218.168278,44.1790546 217.911309,44.1246321 C217.65434,44.069973 217.336087,44.0427617 216.957022,44.0427617 L215.91069,44.0427617 L215.268267,46.8777025 C215.060042,47.7986265 214.956402,48.60408 214.956402,49.2945363 C214.956402,49.8035054 215.075422,50.188249 215.313935,50.4485307 C215.552921,50.7095223 215.935061,50.8756293 216.461067,50.9482715 L216.204571,52.1476969 L207.339377,52.1476969 L207.596346,50.9482715 C207.877687,50.8756293 208.100819,50.7937589 208.26598,50.7028969 C208.43114,50.6120349 208.583997,50.4913589 208.725022,50.339449 C208.865337,50.188249 209.006363,49.9849927 209.147152,49.7306265 C209.287704,49.4762603 209.422577,49.1556406 209.551061,48.7675842 C209.679546,48.3800011 209.804954,47.9017927 209.927287,47.3320124 L212.037698,37.900587 C212.123591,37.5253082 212.196706,37.1008124 212.258228,36.6285194 C212.319275,36.1559899 212.350036,35.8048462 212.350036,35.5743786 C212.350036,35.0053082 212.233383,34.5905138 212.001259,34.3297589 C211.768898,34.0694772 211.383208,33.9026603 210.844898,33.830018 L211.101867,32.6305927 L220.352278,32.6305927 C221.514791,32.6305927 222.453698,32.6667955 223.169709,32.7396744 C223.885484,32.8123166 224.573811,32.9609138 225.234453,33.1847561 C225.895095,33.4093082 226.445946,33.7060293 226.886532,34.0751561 C227.326881,34.4452293 227.657202,34.8872349 227.877495,35.4018828 C228.097552,35.9170039 228.208053,36.501218 228.208053,37.1554715 C228.208053,38.1367335 227.966228,39.0394377 227.48305,39.863111 C226.999399,40.6872575 226.314149,41.3928575 225.427298,41.9801476 C224.539974,42.5681476 223.588526,43.0011617 222.573191,43.2794265 L222.518059,43.4611504 Z" id="Fill-56" fill="#FFFFFF"/>
            <path d="M238.184224,46.8776315 C238.110635,47.2171808 238.05574,47.4928428 238.019064,47.7043808 C237.982151,47.9166287 237.948314,48.1679189 237.91779,48.4587245 C237.887266,48.7492935 237.872123,49.0285048 237.872123,49.2944654 C237.872123,49.8396372 238.003447,50.2428372 238.266568,50.5031189 C238.529926,50.7638738 238.961047,50.9119977 239.560878,50.9482006 L239.303672,52.1476259 L230.236641,52.1476259 L230.493847,50.9482006 C230.775188,50.8755583 230.99832,50.7936879 231.163481,50.7028259 C231.328641,50.6119639 231.481497,50.4912879 231.622286,50.339378 C231.762838,50.188178 231.903627,49.9851583 232.044652,49.7307921 C232.184968,49.4761893 232.320078,49.1555696 232.448562,48.7675132 C232.577047,48.3801668 232.702455,47.9017217 232.824788,47.3319414 L234.935199,37.9005161 C235.020855,37.5254738 235.094207,37.100978 235.155728,36.6284485 C235.21654,36.1559189 235.247537,35.8047752 235.247537,35.5745442 C235.247537,35.0052372 235.130883,34.5904428 234.898523,34.3296879 C234.666162,34.0694062 234.280709,33.9025893 233.742399,33.829947 L233.999368,32.6305217 L249.7289,32.6305217 L248.75592,37.1736203 L246.626816,37.1736203 C246.577835,36.6043132 246.507796,36.1682231 246.415988,35.8651132 C246.324179,35.5627132 246.192382,35.3142625 246.021306,35.1202344 C245.849757,34.9266794 245.64792,34.7929893 245.415559,34.720347 C245.183199,34.6477048 244.828033,34.6112654 244.351007,34.6112654 L240.900382,34.6112654 L239.395717,41.262409 L241.377644,41.262409 C241.977002,41.262409 242.448348,41.1142851 242.790974,40.8170907 C243.133362,40.5206062 243.48214,39.978747 243.837069,39.1908034 L245.617396,39.1908034 L244.240743,45.2603358 L242.460652,45.2603358 C242.448348,44.4854062 242.33832,43.9551414 242.130331,43.6702513 C241.921869,43.3858344 241.524585,43.2431527 240.937295,43.2431527 L238.991571,43.2431527 L238.184224,46.8776315 Z" id="Fill-58" fill="#FFFFFF"/>
            <path d="M254.217103,44.5152439 L259.558083,44.5152439 L259.33779,41.7167425 C259.154174,39.451582 259.050297,37.821982 259.025926,36.8284158 L258.842309,36.8284158 L254.217103,44.5152439 Z M257.77752,52.1476496 L258.034489,50.9482242 C258.511988,50.875582 258.885137,50.7456777 259.154174,50.5575651 C259.42321,50.3699256 259.612979,50.1278637 259.723244,49.8306693 C259.833272,49.5339482 259.888405,49.143289 259.888405,48.6584552 C259.888405,48.4405285 259.8761,48.2107707 259.851728,47.9679989 C259.839424,47.7259369 259.820968,47.4715707 259.796596,47.2046637 L259.723244,46.4051256 L253.171007,46.4051256 C252.767334,47.0839876 252.464224,47.6682017 252.262388,48.1587144 C252.060314,48.6494637 251.959514,49.082951 251.959514,49.4582299 C251.959514,49.9066242 252.069543,50.2459369 252.289835,50.4756946 C252.510128,50.7061623 252.858669,50.8639876 253.336168,50.9482242 L253.078962,52.1476496 L245.84739,52.1476496 L246.104359,50.9300045 C246.447221,50.8457679 246.734951,50.7366862 246.967312,50.6029961 C247.199672,50.4700158 247.44765,50.2551651 247.710534,49.9579707 C247.973655,49.6612496 248.273216,49.2582862 248.609926,48.7493172 C248.946162,48.2405848 249.426737,47.4895538 250.050703,46.4959876 L258.915661,32.4488214 L263.430838,32.4488214 L264.972416,47.7680552 C265.045768,48.5313904 265.143965,49.1193904 265.266297,49.5308721 C265.388157,49.942827 265.559943,50.2608439 265.780235,50.4849228 C266.000292,50.7094749 266.312393,50.8639876 266.716066,50.9482242 L266.459097,52.1476496 L257.77752,52.1476496 Z" id="Fill-60" fill="#FFFFFF"/>
            <path d="M282.3271,41.75304 L285.171742,48.2224597 C285.575652,49.1433837 285.982401,49.8066287 286.392463,50.2121949 C286.802288,50.618471 287.270322,50.8638456 287.796328,50.9483189 L287.539595,52.1475076 L278.802886,52.1475076 L279.060091,50.9483189 C279.463765,50.8879808 279.769477,50.7483752 279.977703,50.5302118 C280.185691,50.3122851 280.289567,50.0576823 280.289567,49.7671132 C280.289567,49.4398682 280.2439,49.1341555 280.151855,48.8492654 C280.060046,48.5650851 279.928722,48.2288485 279.75741,47.8407921 L278.472565,44.9149893 L275.774626,47.6590682 C275.346108,48.0951583 275.003719,48.5040372 274.74675,48.8857048 C274.489545,49.2673724 274.361534,49.6033724 274.361534,49.894178 C274.361534,50.2576259 274.462334,50.5186175 274.66417,50.675733 C274.866007,50.8333217 275.16888,50.9241837 275.57279,50.9483189 L275.315821,52.1475076 L268.23119,52.1475076 L268.487922,50.9483189 C268.781567,50.8638456 269.063145,50.7424597 269.332181,50.584871 C269.601691,50.4277555 269.934852,50.1759921 270.33261,49.8305273 C270.730367,49.4852992 271.393849,48.8584935 272.323765,47.9498738 L277.554953,42.8251639 L274.765207,36.4830456 C274.410041,35.6719132 274.033815,35.0507865 273.636294,34.6203752 C273.238773,34.1906738 272.782807,33.9273161 272.269105,33.8298287 L272.526074,32.63064 L281.170503,32.63064 L280.913534,33.8298287 C280.534232,33.8785724 280.234672,34.0089499 280.014379,34.2204879 C279.794086,34.4327358 279.684057,34.7022456 279.684057,35.0292541 C279.684057,35.3688034 279.73919,35.6991245 279.849218,36.0197442 C279.959246,36.3408372 280.099798,36.689378 280.271348,37.0646569 L281.409488,39.6814344 L283.593252,37.4643076 C284.168238,36.882933 284.602908,36.3831921 284.896553,35.9650851 C285.190198,35.5472146 285.336903,35.1870794 285.336903,34.8839696 C285.336903,34.5205217 285.235866,34.26024 285.034029,34.1024146 C284.832193,33.9455358 284.529556,33.8546738 284.12541,33.8298287 L284.382615,32.63064 L291.449263,32.63064 L291.192294,33.8298287 C290.873567,33.9150118 290.564779,34.0513048 290.265455,34.2387076 C289.964948,34.4270569 289.616407,34.6963301 289.219359,35.0474738 C288.821128,35.3993273 288.200238,35.9922963 287.355979,36.8282738 L282.3271,41.75304 Z" id="Fill-62" fill="#FFFFFF"/>
            <path d="M308.556608,47.2410794 C308.482546,47.5564935 308.434039,47.804471 308.409194,47.9861949 C308.384586,48.1679189 308.363763,48.3652597 308.34507,48.5767977 C308.326851,48.7890456 308.317859,49.0524034 308.317859,49.3673442 C308.317859,49.9248203 308.461251,50.3187921 308.749454,50.5485499 C309.036237,50.7787808 309.486051,50.9119977 310.097949,50.9482006 L309.84098,52.1476259 L300.35182,52.1476259 L300.608789,50.9482006 C301.122727,50.8029161 301.517408,50.6029724 301.792597,50.3486062 C302.068496,50.09424 302.303459,49.7338682 302.49938,49.2672541 C302.695301,48.8013499 302.890749,48.1255639 303.08667,47.2410794 L306.427268,32.2488541 C306.586276,31.5342625 306.666017,30.8255865 306.666017,30.1228259 C306.666017,29.6138569 306.546524,29.2414175 306.307775,29.0050344 C306.069499,28.7688879 305.680732,28.6143752 305.142896,28.541733 L305.399155,27.3423076 L322.762073,27.3423076 L321.459008,33.1939132 L319.110085,33.1939132 C319.048563,32.0432315 318.938299,31.237778 318.779763,30.7768428 C318.620282,30.3168541 318.37538,29.9839301 318.045059,29.7773611 C317.714738,29.5717386 317.250017,29.4685724 316.650423,29.4685724 L312.502715,29.4685724 L310.483403,38.5547696 L312.943301,38.5547696 C313.408023,38.5547696 313.811696,38.4613048 314.154321,38.2729555 C314.496946,38.0855527 314.814963,37.7888315 315.109082,37.3825555 C315.40249,36.9769893 315.714592,36.392302 316.044913,35.6289668 L318.063989,35.6289668 L316.136485,43.733902 L314.245893,43.733902 C314.245893,42.8860935 314.200462,42.2559752 314.10818,41.8437837 C314.016845,41.4325386 313.854524,41.1351076 313.622163,40.9533837 C313.389803,40.7716597 313.028248,40.6807977 312.538918,40.6807977 L310.024597,40.6807977 L308.556608,47.2410794 Z" id="Fill-64" fill="#FFFFFF"/>
            <path d="M325.268657,44.5152439 L330.609401,44.5152439 L330.389344,41.7167425 C330.205727,39.451582 330.101851,37.821982 330.077243,36.8284158 L329.893626,36.8284158 L325.268657,44.5152439 Z M328.829074,52.1476496 L329.086043,50.9482242 C329.563068,50.875582 329.936454,50.7456777 330.205727,50.5575651 C330.474291,50.3699256 330.664533,50.1278637 330.774798,49.8306693 C330.884589,49.5339482 330.939722,49.143289 330.939722,48.6584552 C330.939722,48.4405285 330.927417,48.2107707 330.903282,47.9679989 C330.890978,47.7259369 330.872285,47.4715707 330.84815,47.2046637 L330.774798,46.4051256 L324.222325,46.4051256 C323.818651,47.0839876 323.515778,47.6682017 323.313941,48.1587144 C323.111868,48.6494637 323.010832,49.082951 323.010832,49.4582299 C323.010832,49.9066242 323.121096,50.2459369 323.341153,50.4756946 C323.561682,50.7061623 323.910223,50.8639876 324.387248,50.9482242 L324.130279,52.1476496 L316.898944,52.1476496 L317.155913,50.9300045 C317.498775,50.8457679 317.786268,50.7366862 318.018629,50.6029961 C318.250989,50.4700158 318.49873,50.2551651 318.761615,49.9579707 C319.025209,49.6612496 319.324296,49.2582862 319.661243,48.7493172 C319.997479,48.2405848 320.478291,47.4895538 321.10202,46.4959876 L329.966741,32.4488214 L334.482155,32.4488214 L336.02397,47.7680552 C336.097322,48.5313904 336.195519,49.1193904 336.317378,49.5308721 C336.439474,49.942827 336.611496,50.2608439 336.831553,50.4849228 C337.051372,50.7094749 337.36371,50.8639876 337.767384,50.9482242 L337.510415,52.1476496 L328.829074,52.1476496 Z" id="Fill-66" fill="#FFFFFF"/>
            <path d="M363.803763,46.8776315 C363.742006,47.1566062 363.675279,47.5318851 363.601927,48.0044146 C363.527865,48.4767076 363.491662,48.9071189 363.491662,49.2944654 C363.491662,49.8034344 363.607842,50.188178 363.840203,50.4484597 C364.072327,50.7094513 364.458017,50.8755583 364.996563,50.9482006 L364.739594,52.1476259 L355.874873,52.1476259 L356.131842,50.9482006 C356.41271,50.8755583 356.636079,50.7936879 356.801476,50.7028259 C356.9664,50.6119639 357.119493,50.4912879 357.260518,50.339378 C357.400597,50.188178 357.541386,49.9851583 357.682175,49.7307921 C357.8232,49.4761893 357.957363,49.1555696 358.085848,48.7675132 C358.214569,48.3801668 358.339741,47.9017217 358.46231,47.3319414 L359.912315,40.7898794 C360.083628,40.0390851 360.426254,38.6274118 360.940192,36.5558062 L360.665003,36.5558062 C359.942839,37.8763808 359.019313,39.4451696 357.893239,41.262409 L353.011301,49.0583189 L350.129746,49.0583189 L349.101634,41.3894738 C348.869273,39.6936203 348.679741,38.08224 348.533273,36.5558062 L348.3312,36.5558062 C348.061927,38.1309837 347.773724,39.6027583 347.468011,40.9716034 L346.165656,46.8776315 C346.091594,47.2294851 346.036935,47.5077499 346.000023,47.713609 C345.96311,47.9199414 345.929273,48.1679189 345.898749,48.4587245 C345.868225,48.7492935 345.853318,49.0285048 345.853318,49.2944654 C345.853318,49.8034344 345.969499,50.188178 346.201859,50.4484597 C346.43422,50.7094513 346.819673,50.8755583 347.358456,50.9482006 L347.101487,52.1476259 L340.805983,52.1476259 L341.062952,50.9482006 C341.344056,50.8755583 341.567189,50.7936879 341.732823,50.7028259 C341.897746,50.6119639 342.050839,50.4912879 342.191628,50.339378 C342.331707,50.188178 342.472732,49.9851583 342.613521,49.7307921 C342.75431,49.4761893 342.88942,49.1555696 343.017194,48.7675132 C343.145679,48.3801668 343.271561,47.9017217 343.393656,47.3319414 L345.504304,37.9005161 C345.589961,37.5254738 345.663313,37.100978 345.724834,36.6284485 C345.785882,36.1559189 345.816406,35.8047752 345.816406,35.5745442 C345.816406,35.0052372 345.700225,34.5904428 345.467865,34.3296879 C345.235504,34.0694062 344.850051,33.9025893 344.311268,33.829947 L344.568237,32.6305217 L352.644068,32.6305217 L353.87378,43.3522344 L360.334682,32.6305217 L368.501848,32.6305217 L368.244879,33.829947 C367.621149,33.9636372 367.141048,34.3055527 366.804101,34.85664 C366.467865,35.4082006 366.159076,36.3260485 365.877262,37.6097104 L363.803763,46.8776315 Z" id="Fill-68" fill="#FFFFFF"/>
            <path d="M377.22985,46.8776315 C377.168802,47.1566062 377.101366,47.5318851 377.028014,48.0044146 C376.954661,48.4767076 376.918222,48.9071189 376.918222,49.2944654 C376.918222,49.8034344 377.033929,50.188178 377.266763,50.4484597 C377.499123,50.7094513 377.884814,50.8755583 378.42265,50.9482006 L378.166391,52.1476259 L369.30096,52.1476259 L369.557929,50.9482006 C369.839506,50.8755583 370.062875,50.7936879 370.227563,50.7028259 C370.393197,50.6119639 370.54558,50.4912879 370.686605,50.339378 C370.827394,50.188178 370.968183,49.9851583 371.108971,49.7307921 C371.249287,49.4761893 371.38416,49.1555696 371.512645,48.7675132 C371.641129,48.3801668 371.766537,47.9017217 371.889106,47.3319414 L373.999754,37.9005161 C374.085411,37.5254738 374.158763,37.100978 374.219811,36.6284485 C374.280622,36.1559189 374.311856,35.8047752 374.311856,35.5745442 C374.311856,35.0052372 374.194966,34.5904428 373.962842,34.3296879 C373.730481,34.0694062 373.344791,33.9025893 372.806718,33.829947 L373.063923,32.6305217 L381.928645,32.6305217 L381.671675,33.829947 C381.047236,33.9636372 380.567135,34.3055527 380.230898,34.85664 C379.893952,35.4082006 379.585163,36.3260485 379.304059,37.6097104 L377.22985,46.8776315 Z" id="Fill-70" fill="#FFFFFF"/>
            <path d="M389.977122,50.1304901 L392.418091,50.1304901 C393.226148,50.1304901 393.83426,50.0337127 394.244322,49.8396845 C394.654621,49.6463662 395.070598,49.2673014 395.492491,48.7039099 C395.914857,48.1405183 396.340063,47.3021746 396.768345,46.1869859 L398.934125,46.1869859 L397.336942,52.1476732 L382.727567,52.1476732 L382.984063,50.9482479 C383.265641,50.8756056 383.48901,50.7937352 383.654407,50.7028732 C383.819331,50.6120113 383.972424,50.4913352 384.113212,50.3394254 C384.253528,50.1882254 384.394317,49.9852056 384.535105,49.7306028 C384.675894,49.4762366 384.810294,49.1556169 384.938779,48.7675606 C385.067263,48.3802141 385.192672,47.901769 385.315241,47.3319887 L387.425888,37.9005634 C387.511545,37.5252845 387.584897,37.1010254 387.646418,36.6284958 C387.707466,36.1559662 387.73799,35.8048225 387.73799,35.5743549 C387.73799,35.0052845 387.62181,34.5904901 387.389449,34.3297352 C387.156615,34.0694535 386.770925,33.9026366 386.233088,33.8299944 L386.490057,32.630569 L395.354779,32.630569 L395.09781,33.8299944 C394.47408,33.9636845 393.993742,34.3056 393.657032,34.8566873 C393.320795,35.4082479 393.012007,36.3260958 392.730193,37.6097577 L389.977122,50.1304901 Z" id="Fill-72" fill="#FFFFFF"/>
            <path d="M410.02965,44.7878299 L409.570844,46.8776552 C409.497492,47.2411031 409.442359,47.5226806 409.40592,47.7226242 C409.369007,47.9225679 409.335171,48.1679425 409.304647,48.4587482 C409.274123,48.7493172 409.258506,49.0285285 409.258506,49.294489 C409.258506,49.8396608 409.390303,50.2428608 409.653188,50.5031425 C409.916782,50.7638975 410.347666,50.9120214 410.947261,50.9482242 L410.690292,52.1476496 L401.439881,52.1476496 L401.697086,50.9482242 C401.904602,50.9120214 402.109751,50.8606749 402.311588,50.7937115 C402.514134,50.7276946 402.691362,50.6302073 402.844455,50.5031425 C402.996838,50.3758411 403.150168,50.1915144 403.303261,49.9487425 C403.455881,49.7066806 403.605661,49.385351 403.752365,48.9857003 C403.899779,48.585813 404.052162,48.0347256 404.211171,47.3319651 L404.798697,44.6969679 L402.68805,37.3189285 C402.565954,36.8712439 402.418776,36.4103087 402.247227,35.9380158 C402.075914,35.4654862 401.901999,35.0838186 401.724297,34.793013 C401.547069,34.5022073 401.357537,34.2842806 401.1557,34.1387594 C400.953864,33.9934749 400.711802,33.8910186 400.430697,33.8299707 L400.687666,32.6305454 L409.240523,32.6305454 L408.965334,33.8299707 C408.476005,33.8910186 408.120838,34.0661172 407.900782,34.3569228 C407.680252,34.6477285 407.570461,35.0111763 407.570461,35.4472665 C407.570461,35.8833566 407.662033,36.4285285 407.84565,37.082782 L409.240523,42.1528327 L412.636016,37.6461735 C413.247441,36.8348045 413.648512,36.2468045 413.838044,35.8833566 C414.027576,35.5199087 414.122934,35.1810693 414.122934,34.8656552 C414.122934,34.5632552 414.027576,34.3327876 413.838044,34.1751989 C413.648512,34.0180834 413.352027,33.902613 412.948354,33.8299707 L413.205323,32.6305454 L419.922483,32.6305454 L419.665514,33.8299707 C419.237233,33.902613 418.765886,34.1725961 418.252658,34.6385003 C417.738483,35.1051144 416.973492,35.9808439 415.958393,37.2645059 L410.02965,44.7878299 Z" id="Fill-74" fill="#FFFFFF"/>
            <path d="M180.316695,86.6159966 C180.879377,86.6647403 181.332504,86.6886389 181.675129,86.6886389 C183.253383,86.6886389 184.614419,86.3798501 185.758712,85.7617994 C186.902768,85.1439854 187.91834,84.2022389 188.805428,82.9360868 C189.692752,81.6704079 190.39007,80.125991 190.897856,78.3021262 C191.405405,76.4789713 191.659535,74.6468248 191.659535,72.8049769 C191.659535,71.5575177 191.518746,70.509529 191.237405,69.6612473 C190.956064,68.8136755 190.567535,68.128898 190.072053,67.6076248 C189.576571,67.087298 189.001112,66.714622 188.346622,66.4900699 C187.692132,66.2662276 186.997653,66.1538332 186.263659,66.1538332 C185.651523,66.1538332 185.18065,66.1663741 184.850329,66.1902727 L180.316695,86.6159966 Z M172.718126,88.8331234 L172.975095,87.633698 C173.489033,87.4881769 173.883715,87.2884699 174.158904,87.033867 C174.434329,86.7795008 174.669529,86.4193656 174.865687,85.9527515 C175.061371,85.4866107 175.257056,84.8110614 175.452977,83.9265769 L178.793574,68.9343515 C178.952109,68.21976 179.03185,67.5110839 179.03185,66.8080868 C179.03185,66.2993544 178.912594,65.9266783 178.674081,65.6905318 C178.435568,65.4543854 178.046802,65.2998727 177.508729,65.2272304 L177.765461,64.0278051 L185.19887,64.0278051 C186.948673,64.0278051 188.37407,64.1070727 189.475535,64.2639515 C190.576526,64.4217769 191.542881,64.6761431 192.375309,65.0272868 C192.913619,65.2700586 193.494994,65.5906783 194.11896,65.990329 C194.742926,66.3902163 195.308921,66.9353882 195.816706,67.6258445 C196.324256,68.3165375 196.713022,69.1406839 196.982295,70.0973375 C197.251332,71.0547008 197.385968,72.1209093 197.385968,73.2957262 C197.385968,74.9071065 197.202352,76.45176 196.835354,77.9296868 C196.468357,79.4080868 195.926735,80.7736192 195.211197,82.027467 C194.495422,83.2813149 193.638622,84.3600642 192.641506,85.2620586 C191.644154,86.1649994 190.643726,86.86776 189.640695,87.3701037 C188.636954,87.8731572 187.505202,88.2425206 186.245202,88.478667 C184.984729,88.7148135 183.491895,88.8331234 181.766701,88.8331234 L172.718126,88.8331234 Z" id="Fill-76" fill="#FFFFFF"/>
            <path d="M219.090314,69.3159245 L218.117334,73.8590231 L215.988466,73.8590231 C215.93925,73.2897161 215.86921,72.8536259 215.777402,72.5505161 C215.685593,72.2481161 215.554269,71.9996654 215.38272,71.8056372 C215.211407,71.6120823 215.009334,71.4783921 214.77721,71.4057499 C214.544613,71.3331076 214.18992,71.2966682 213.712658,71.2966682 L210.023283,71.2966682 L208.573514,77.7114287 L210.555914,77.7114287 C211.179881,77.7114287 211.656906,77.5694569 211.987227,77.2845668 C212.317548,77.0001499 212.648106,76.4881048 212.978664,75.7489048 L214.758754,75.7489048 L213.455689,81.564071 L211.675362,81.564071 C211.663058,81.0676428 211.611002,80.6892879 211.519193,80.4282963 C211.427385,80.1680146 211.277605,79.9803752 211.069379,79.8649048 C210.86139,79.7501442 210.543374,79.692409 210.115092,79.692409 L208.169605,79.692409 L206.609571,86.8522851 L209.968388,86.8522851 C210.690078,86.8522851 211.24992,86.77704 211.647678,86.6251301 C212.045199,86.4739301 212.437041,86.1708203 212.822495,85.7165104 C213.207948,85.2622006 213.663678,84.4716541 214.18992,83.344871 L216.3557,83.344871 L214.887238,88.8330287 L199.359779,88.8330287 L199.616748,87.6336034 C199.898089,87.5609611 200.121221,87.4790907 200.286382,87.3882287 C200.451543,87.2973668 200.604399,87.1766907 200.745424,87.0247808 C200.88574,86.8735808 201.026765,86.6705611 201.167554,86.4161949 C201.308106,86.1615921 201.442979,85.8409724 201.571464,85.4529161 C201.699948,85.0655696 201.825357,84.5871245 201.947689,84.0173442 L204.0581,74.5859189 C204.143993,74.2108766 204.217109,73.7863808 204.27863,73.3138513 C204.339678,72.8413217 204.370438,72.490178 204.370438,72.259947 C204.370438,71.69064 204.253785,71.2758456 204.021661,71.0150907 C203.7893,70.754809 203.40361,70.5879921 202.8653,70.5153499 L203.122269,69.3159245 L219.090314,69.3159245 Z" id="Fill-78" fill="#FFFFFF"/>
            <path d="M232.406728,88.8330287 L228.221872,77.8569499 L227.102424,74.7494231 L226.937263,74.7494231 C226.716734,75.9611527 226.398717,77.5058062 225.982739,79.3833837 L225.046908,83.5630344 C224.912035,84.1446456 224.826615,84.6261668 224.789939,85.0078344 C224.753263,85.3892654 224.734807,85.7139076 224.734807,85.9798682 C224.734807,86.4888372 224.850987,86.8735808 225.083584,87.1338625 C225.315708,87.3948541 225.701162,87.5609611 226.239708,87.6336034 L225.982739,88.8330287 L219.687472,88.8330287 L219.944441,87.6336034 C220.225781,87.5609611 220.448914,87.4790907 220.614074,87.3882287 C220.779235,87.2973668 220.932091,87.1766907 221.073117,87.0247808 C221.213432,86.8735808 221.354457,86.6705611 221.495246,86.4161949 C221.635798,86.1615921 221.770672,85.8409724 221.898919,85.4529161 C222.027404,85.0655696 222.153049,84.5871245 222.275381,84.0173442 L224.385793,74.5859189 C224.471686,74.2108766 224.544801,73.7863808 224.606322,73.3138513 C224.66737,72.8413217 224.698131,72.490178 224.698131,72.259947 C224.698131,71.69064 224.581477,71.2758456 224.349353,71.0150907 C224.116993,70.754809 223.731303,70.5879921 223.192993,70.5153499 L223.449962,69.3159245 L230.222491,69.3159245 L233.746705,78.711147 C234.187055,79.874133 234.633556,81.1163865 235.086446,82.4362513 L235.251607,82.4362513 C235.520643,81.0188992 235.789917,79.722933 236.059426,78.5474062 L236.940125,74.5859189 C237.025781,74.1985724 237.099134,73.7714738 237.160418,73.3048597 C237.221466,72.8387189 237.252226,72.490178 237.252226,72.259947 C237.252226,71.69064 237.13581,71.2758456 236.903449,71.0150907 C236.671088,70.754809 236.285635,70.5879921 235.747088,70.5153499 L236.004294,69.3159245 L242.317781,69.3159245 L242.061049,70.5153499 C241.437083,70.64904 240.956508,70.9909555 240.620272,71.5420428 C240.283562,72.0936034 239.974536,73.0114513 239.693195,74.2951132 L236.4631,88.8330287 L232.406728,88.8330287 Z" id="Fill-80" fill="#FFFFFF"/>
            <path d="M254.955357,83.5630344 C254.882005,83.9148879 254.827109,84.1931527 254.790196,84.3990118 C254.75352,84.6053442 254.719683,84.8533217 254.689159,85.1441273 C254.658872,85.4346963 254.643492,85.7139076 254.643492,85.9798682 C254.643492,86.52504 254.775052,86.92824 255.038174,87.1885217 C255.301058,87.4492766 255.732652,87.5974006 256.33201,87.6336034 L256.075278,88.8330287 L246.82463,88.8330287 L247.081599,87.6336034 C247.289588,87.5974006 247.494737,87.5460541 247.696574,87.4790907 C247.89841,87.4130738 248.075402,87.3155865 248.228731,87.1885217 C248.381588,87.0612203 248.534444,86.8768935 248.687537,86.6341217 C248.840393,86.3920597 248.99041,86.0707301 249.137351,85.6710794 C249.284055,85.2711921 249.436912,84.7201048 249.596157,84.0173442 L252.441035,71.2966682 L251.229779,71.2966682 C250.666624,71.2966682 250.226275,71.3487245 249.908021,71.4511808 C249.590005,71.554347 249.284055,71.7301555 248.99041,71.978133 C248.697002,72.2268203 248.405959,72.566133 248.118703,72.9958344 C247.830737,73.426009 247.570928,73.9382907 247.338568,74.5314963 L245.209464,74.5314963 L246.328912,69.3159245 L264.573002,69.3159245 L263.435097,74.6403414 L261.305993,74.6403414 L261.305993,74.2406907 C261.305993,73.7681611 261.290613,73.3748992 261.260089,73.0594851 C261.229328,72.7445442 261.186737,72.4994062 261.131605,72.3233611 C261.076472,72.1482625 260.994128,71.9937499 260.883864,71.8600597 C260.773835,71.7270794 260.651503,71.6179977 260.516866,71.5330513 C260.381993,71.448578 260.226061,71.3875301 260.048833,71.3513273 C259.871368,71.3148879 259.586714,71.2966682 259.195345,71.2966682 L257.671751,71.2966682 L254.955357,83.5630344 Z" id="Fill-82" fill="#FFFFFF"/>
            <path d="M268.54729,81.2006468 L273.88827,81.2006468 L273.667977,78.4021454 C273.484361,76.1369848 273.380485,74.5073848 273.356113,73.5138186 L273.172496,73.5138186 L268.54729,81.2006468 Z M272.107707,88.8330524 L272.364676,87.633627 C272.842175,87.5609848 273.215324,87.4310806 273.484361,87.2429679 C273.753397,87.0553285 273.943166,86.8132665 274.053431,86.5160721 C274.163459,86.219351 274.218592,85.8286918 274.218592,85.343858 C274.218592,85.1259313 274.206287,84.8961735 274.181915,84.6534017 C274.169611,84.4113397 274.151155,84.1569735 274.126783,83.8900665 L274.053431,83.0905285 L267.500958,83.0905285 C267.097285,83.7693904 266.794411,84.3536045 266.592575,84.8441172 C266.390501,85.3348665 266.289701,85.7683538 266.289701,86.1436327 C266.289701,86.592027 266.39973,86.9313397 266.620023,87.1610975 C266.840315,87.3915651 267.188856,87.5493904 267.666355,87.633627 L267.409149,88.8330524 L260.177577,88.8330524 L260.434546,87.6154073 C260.777408,87.5311707 261.065138,87.422089 261.297499,87.2883989 C261.529859,87.1554186 261.777837,86.9405679 262.040721,86.6433735 C262.303842,86.3466524 262.603403,85.943689 262.940113,85.43472 C263.276349,84.9259876 263.756924,84.1749566 264.38089,83.1813904 L273.245848,69.1342242 L277.761025,69.1342242 L279.302603,84.453458 C279.375955,85.2167932 279.474152,85.8047932 279.596485,86.2162749 C279.718344,86.6282299 279.89013,86.9462468 280.110423,87.1703256 C280.330479,87.3948777 280.64258,87.5493904 281.046254,87.633627 L280.789285,88.8330524 L272.107707,88.8330524 Z" id="Fill-84" fill="#FFFFFF"/>
            <path d="M291.371415,86.815893 L293.812384,86.815893 C294.619731,86.815893 295.228553,86.7191155 295.638615,86.5250873 C296.048204,86.331769 296.464891,85.9527042 296.886784,85.3893127 C297.308677,84.8259211 297.733646,83.9875775 298.162638,82.8723887 L300.328418,82.8723887 L298.731235,88.8330761 L284.121387,88.8330761 L284.378356,87.6336507 C284.659697,87.5610085 284.882829,87.479138 285.04799,87.3882761 C285.21315,87.2974141 285.366007,87.176738 285.507032,87.0248282 C285.647348,86.8736282 285.788373,86.6706085 285.929162,86.4160056 C286.069714,86.1616394 286.204587,85.8410197 286.333072,85.4529634 C286.461556,85.0656169 286.586965,84.5871718 286.709297,84.0173915 L288.819945,74.5859662 C288.905365,74.2106873 288.978953,73.7864282 289.040238,73.3138986 C289.101286,72.841369 289.132046,72.4902254 289.132046,72.2597577 C289.132046,71.6906873 289.015393,71.275893 288.783269,71.015138 C288.550908,70.7548563 288.165218,70.5880394 287.626908,70.5153972 L287.883877,69.3159718 L296.749072,69.3159718 L296.492103,70.5153972 C295.868373,70.6490873 295.387562,70.9910028 295.051325,71.5420901 C294.714379,72.0936507 294.40559,73.0114986 294.124486,74.2951606 L291.371415,86.815893 Z" id="Fill-86" fill="#FFFFFF"/>
            <path d="M335.238794,64.6274704 L334.064214,69.9339042 L331.660158,69.9339042 C331.623245,68.8558648 331.512744,68.0437859 331.329837,67.4986141 C331.14622,66.9534423 330.858727,66.5445634 330.466648,66.2719775 C330.075279,65.9993915 329.543121,65.8630986 328.869938,65.8630986 C328.331392,65.8630986 327.775099,65.9814085 327.200113,66.2175549 C326.624417,66.4537014 326.05582,66.8263775 325.493138,67.3351099 C324.844327,67.9290254 324.229589,68.6890479 323.648214,69.6158873 C323.067313,70.5424901 322.544146,71.6122479 322.078715,72.8232676 C321.712192,73.8045296 321.372642,74.9194817 321.060541,76.1669408 C320.748203,77.4148732 320.528383,78.5598761 320.399899,79.6014761 C320.271414,80.6437859 320.207054,81.5706254 320.207054,82.3817577 C320.207054,83.3994592 320.301701,84.2418254 320.491234,84.9079099 C320.680766,85.574231 321.011087,86.0891155 321.482434,86.4523268 C321.953544,86.8157746 322.605194,86.9974986 323.437149,86.9974986 C324.354761,86.9974986 325.140811,86.8432225 325.795775,86.5341972 C326.450501,86.2254085 327.013183,85.7800901 327.48453,85.1984789 C327.95493,84.6171042 328.417048,83.8175662 328.869938,82.7998648 L331.274704,82.7998648 L330.099887,88.1607211 C328.913003,88.5000338 327.73227,88.7454085 326.55769,88.8966085 C325.382873,89.0478085 324.122637,89.1237634 322.776507,89.1237634 C320.170141,89.1237634 318.169758,88.4184 316.775121,87.0067268 C315.379775,85.5957634 314.682693,83.5629634 314.682693,80.9099831 C314.682693,80.1102085 314.756045,79.1836056 314.902749,78.1294648 C315.147414,76.5062535 315.526952,74.9616 316.040417,73.4955042 C316.627707,71.8237859 317.368327,70.3699944 318.26133,69.1341296 C319.154332,67.8985014 320.1576,66.8841127 321.271369,66.0902535 C322.385138,65.2973408 323.593555,64.706738 324.896146,64.3184451 C326.199448,63.9310986 327.591482,63.7370704 329.072011,63.7370704 C330.197848,63.7370704 331.265476,63.8130254 332.274659,63.9642254 C333.284079,64.1161352 334.272439,64.3366648 335.238794,64.6274704" id="Fill-88" fill="#FFFFFF"/>
            <path d="M340.920223,81.2006468 L346.261677,81.2006468 L346.04091,78.4021454 C345.857294,76.1369848 345.753417,74.5073848 345.729519,73.5138186 L345.545665,73.5138186 L340.920223,81.2006468 Z M344.48064,88.8330524 L344.737846,87.633627 C345.215344,87.5609848 345.588494,87.4310806 345.857294,87.2429679 C346.126567,87.0553285 346.316099,86.8132665 346.426364,86.5160721 C346.536865,86.219351 346.591998,85.8286918 346.591998,85.343858 C346.591998,85.1259313 346.579694,84.8961735 346.554848,84.6534017 C346.542544,84.4113397 346.524561,84.1569735 346.499716,83.8900665 L346.426364,83.0905285 L339.874127,83.0905285 C339.470454,83.7693904 339.167344,84.3536045 338.965508,84.8441172 C338.763671,85.3348665 338.662871,85.7683538 338.662871,86.1436327 C338.662871,86.592027 338.772663,86.9313397 338.993429,87.1610975 C339.213248,87.3915651 339.561789,87.5493904 340.039525,87.633627 L339.782555,88.8330524 L332.55051,88.8330524 L332.807479,87.6154073 C333.150341,87.5311707 333.438308,87.422089 333.670668,87.2883989 C333.903029,87.1554186 334.151006,86.9405679 334.413891,86.6433735 C334.676775,86.3466524 334.976572,85.943689 335.313519,85.43472 C335.649519,84.9259876 336.129857,84.1749566 336.754296,83.1813904 L345.619017,69.1342242 L350.134195,69.1342242 L351.675772,84.453458 C351.749125,85.2167932 351.847085,85.8047932 351.969654,86.2162749 C352.09175,86.6282299 352.263063,86.9462468 352.483592,87.1703256 C352.703648,87.3948777 353.015986,87.5493904 353.41966,87.633627 L353.162454,88.8330524 L344.48064,88.8330524 Z" id="Fill-90" fill="#FFFFFF"/>
            <path d="M366.478962,78.8200631 C367.530974,78.8200631 368.393452,78.7176068 369.066635,78.5110377 C369.739582,78.3054152 370.302264,77.9814828 370.75539,77.5390039 C371.207571,77.0969983 371.553509,76.5549025 371.792495,75.91248 C372.030534,75.2705307 372.150027,74.5677701 372.150027,73.8044349 C372.150027,72.9568631 371.871526,72.3267448 371.314759,71.9145532 C370.757993,71.5030715 369.873982,71.2967392 368.662962,71.2967392 C368.148788,71.2967392 367.647154,71.3149589 367.157824,71.3511617 L365.45085,78.8200631 L366.478962,78.8200631 Z M371.673002,80.1465532 C372.198771,80.5348462 372.618061,80.9494039 372.930162,81.3914096 C373.242264,81.8341251 373.508461,82.4486265 373.728517,83.2358603 L374.242455,85.1439617 C374.450207,85.9319054 374.731785,86.5191955 375.086714,86.9067786 C375.441881,87.2948349 375.961734,87.5368969 376.646985,87.6336744 L376.390016,88.8330997 L370.186083,88.8330997 C369.770106,87.7789589 369.433869,86.7068349 369.1769,85.6164913 L368.57139,82.9814941 C368.47272,82.5700124 368.35654,82.2065645 368.22214,81.8911504 C368.087976,81.5764462 367.925655,81.3310715 367.736123,81.1552631 C367.545881,80.9799279 367.323221,80.8644575 367.066252,80.8100349 C366.809283,80.7553758 366.490557,80.7281645 366.111728,80.7281645 L365.065396,80.7281645 L364.422974,83.5631054 C364.214512,84.4840293 364.111345,85.2894828 364.111345,85.9799392 C364.111345,86.4889082 364.230128,86.8736518 364.468878,87.1339335 C364.707864,87.3949251 365.090005,87.5610321 365.615774,87.6336744 L365.359514,88.8330997 L356.493847,88.8330997 L356.750816,87.6336744 C357.03263,87.5610321 357.255762,87.4791617 357.420686,87.3882997 C357.58632,87.2974377 357.738703,87.1767617 357.879492,87.0248518 C358.020281,86.8736518 358.161306,86.6703955 358.302095,86.4160293 C358.442174,86.1616631 358.577283,85.8410434 358.705768,85.452987 C358.834252,85.0654039 358.959424,84.5871955 359.08223,84.0174152 L361.192878,74.5859899 C361.278534,74.210711 361.351886,73.7862152 361.412697,73.3139223 C361.473745,72.8413927 361.504979,72.490249 361.504979,72.2597814 C361.504979,71.690711 361.388089,71.2759166 361.155728,71.0149251 C360.923368,70.75488 360.537914,70.5880631 359.999841,70.5154208 L360.25681,69.3159955 L369.507221,69.3159955 C370.669734,69.3159955 371.608878,69.3521983 372.324652,69.4250772 C373.040427,69.4977194 373.728517,69.6463166 374.389159,69.8701589 C375.049802,70.094711 375.600889,70.3914321 376.041475,70.7605589 C376.481588,71.1306321 376.811909,71.5726377 377.032675,72.0872856 C377.252495,72.6026434 377.362996,73.1866208 377.362996,73.8408744 C377.362996,74.8221363 377.120697,75.7248406 376.637993,76.5485138 C376.154343,77.3726603 375.469092,78.0782603 374.582005,78.6655504 C373.694681,79.2535504 372.743233,79.6865645 371.728134,79.9648293 L371.673002,80.1465532 Z" id="Fill-92" fill="#FFFFFF"/>
            <path d="M399.122356,69.3159245 L398.149376,73.8590231 L396.020035,73.8590231 C395.971291,73.2897161 395.900542,72.8536259 395.809207,72.5505161 C395.717635,72.2481161 395.585838,71.9996654 395.414525,71.8056372 C395.243212,71.6120823 395.041376,71.4783921 394.809015,71.4057499 C394.575945,71.3331076 394.221725,71.2966682 393.7447,71.2966682 L390.055088,71.2966682 L388.605083,77.7114287 L390.587246,77.7114287 C391.211449,77.7114287 391.688474,77.5694569 392.018795,77.2845668 C392.349353,77.0001499 392.679674,76.4881048 393.009995,75.7489048 L394.790086,75.7489048 L393.487731,81.564071 L391.706694,81.564071 C391.69439,81.0676428 391.64257,80.6892879 391.550998,80.4282963 C391.459426,80.1680146 391.309646,79.9803752 391.101184,79.8649048 C390.892959,79.7501442 390.574942,79.692409 390.147134,79.692409 L388.20141,79.692409 L386.641139,86.8522851 L389.999719,86.8522851 C390.722119,86.8522851 391.281725,86.77704 391.679483,86.6251301 C392.076767,86.4739301 392.46861,86.1708203 392.8543,85.7165104 C393.239753,85.2622006 393.695246,84.4716541 394.221725,83.344871 L396.387505,83.344871 L394.91857,88.8330287 L379.391821,88.8330287 L379.64879,87.6336034 C379.929657,87.5609611 380.153026,87.4790907 380.318424,87.3882287 C380.483348,87.2973668 380.636441,87.1766907 380.777466,87.0247808 C380.917545,86.8735808 381.058334,86.6705611 381.199122,86.4161949 C381.340148,86.1615921 381.474311,85.8409724 381.602795,85.4529161 C381.731517,85.0655696 381.856688,84.5871245 381.979257,84.0173442 L384.089905,74.5859189 C384.175562,74.2108766 384.248914,73.7863808 384.310672,73.3138513 C384.371719,72.8413217 384.402007,72.490178 384.402007,72.259947 C384.402007,71.69064 384.285826,71.2758456 384.053703,71.0150907 C383.820632,70.754809 383.435179,70.5879921 382.897105,70.5153499 L383.154074,69.3159245 L399.122356,69.3159245 Z" id="Fill-94" fill="#FFFFFF"/>
        </g>
    </g>
</svg>